<?xml version="1.0" encoding="utf-8"?>
<!-- Generator: Adobe Illustrator 27.5.0, SVG Export Plug-In . SVG Version: 6.00 Build 0)  -->
<svg version="1.1" xmlns="http://www.w3.org/2000/svg" xmlns:xlink="http://www.w3.org/1999/xlink" x="0px" y="0px"
	 viewBox="0 0 500 500" style="enable-background:new 0 0 500 500;" xml:space="preserve">
<g id="BACKGROUND">
	<rect style="fill:#A7DCEA;" width="500" height="500"/>
</g>
<g id="OBJECTS">
	<circle style="fill:#B7ECF9;" cx="250" cy="250" r="222.261"/>
	<g>
		<path style="fill:#FFFFFF;" d="M308.434,263.937c0,0,0.551-16.102-4.27-24.892c-4.821-8.791-11.902-30.468-12.045-41.511
			c-2.236,16.697-2.155,27.093,2.091,36.893C298.457,244.227,307.782,257.415,308.434,263.937z"/>
		<path style="fill:#FFFFFF;" d="M308.434,263.937c0,0,0.551-16.102-4.27-24.892c-4.821-8.791-11.902-30.468-12.045-41.511
			c-2.236,16.697,1.689,26.412,5.935,36.212C302.301,243.546,307.782,257.415,308.434,263.937z"/>
		<path style="fill:#FFFFFF;" d="M313.038,285.882c0,0-1.349-16.055-7.171-24.216c-5.822-8.162-15.407-28.855-16.849-39.805
			c-0.255,16.844,1.05,27.158,6.421,36.391C300.809,267.483,311.622,279.482,313.038,285.882z"/>
		<path style="fill:#FFFFFF;" d="M313.038,285.882c0,0-1.349-16.055-7.171-24.216c-5.822-8.162-15.407-28.855-16.849-39.805
			c-0.255,16.844,4.787,26.029,10.158,35.261C304.546,266.354,311.622,279.482,313.038,285.882z"/>
		<path style="fill:#FFFFFF;" d="M312.969,307.107c0,0-1.349-16.055-7.171-24.217c-5.822-8.162-15.407-28.854-16.849-39.804
			c-0.255,16.844,1.05,27.158,6.42,36.39C300.741,288.709,311.554,300.707,312.969,307.107z"/>
		<path style="fill:#FFFFFF;" d="M312.969,307.107c0,0-1.349-16.055-7.171-24.217c-5.822-8.162-15.407-28.854-16.849-39.804
			c-0.255,16.844,4.787,26.029,10.157,35.261C304.478,287.579,311.554,300.707,312.969,307.107z"/>
		<path style="fill:#FFFFFF;" d="M309.282,248.679c0,0,1.608-10.606-0.88-22.533c-2.488-11.927-7.924-18.9-9.781-25.76
			c-1.857-6.86-1.815-15.961-1.815-15.961s-3.366,12.733,0.558,28.143C301.288,227.976,308.773,241.188,309.282,248.679z"/>
		<path style="fill:#FFFFFF;" d="M309.282,248.679c0,0,1.608-10.606-0.88-22.533c-2.488-11.927-7.924-18.9-9.781-25.76
			c-1.857-6.86-1.815-15.961-1.815-15.961s-2.791,13.56,3.138,28.314C307.758,232.18,308.773,241.188,309.282,248.679z"/>
		<path style="fill:#FFFFFF;" d="M313.448,233.591c0,0,4.376-8.44,3.142-22.161c-1.234-13.721-10.559-37.682-9.344-44.482
			c-3.175,8.393-3.075,24.818,0.639,38.539C311.598,219.208,313.448,233.591,313.448,233.591z"/>
		<path style="fill:#FFFFFF;" d="M313.448,233.591c0,0,4.376-8.44,3.142-22.161c-1.234-13.721-10.559-37.682-9.344-44.482
			c-3.175,8.393,1.381,24.141,5.094,37.862C316.053,218.531,313.448,233.591,313.448,233.591z"/>
		<path style="fill:#FFFFFF;" d="M319.368,218.471c0,0,5.693-14.16,3.844-27.304c-1.849-13.143-2.431-29.875-1.338-34.251
			c-4.251,7.641-8.623,25.143-6.153,34.76C318.192,201.294,321.091,211.724,319.368,218.471z"/>
		<path style="fill:#FFFFFF;" d="M319.368,218.471c0,0,5.693-14.16,3.844-27.304c-1.849-13.143-2.431-29.875-1.338-34.251
			c-4.251,7.641-3.963,24.634-1.493,34.251C322.852,200.784,321.091,211.724,319.368,218.471z"/>
		<path style="fill:#FFFFFF;" d="M324.879,206.087c0,0,8.132-11.492,8.144-22.895c0.012-11.402,4.339-34.68,6.683-37.516
			c-7.042,11.071-13.129,25.319-13.066,33.405C326.703,187.168,328.48,199.616,324.879,206.087z"/>
		<path style="fill:#FFFFFF;" d="M324.879,206.087c0,0,8.132-11.492,8.144-22.895c0.012-11.402,4.339-34.68,6.683-37.516
			c-7.042,11.071-9.418,25.196-9.355,33.282C330.415,187.045,328.48,199.616,324.879,206.087z"/>
		<path style="fill:#FFFFFF;" d="M334.146,192.51c0,0,13.314-19.657,14.09-32.145c0.776-12.488,1.981-24.162,3.635-25.273
			c-4.837,8.35-9.463,22.107-11.824,33.79C337.687,180.564,334.146,192.51,334.146,192.51z"/>
		<path style="fill:#FFFFFF;" d="M334.146,192.51c0,0,13.314-19.657,14.09-32.145c0.776-12.488,1.981-24.162,3.635-25.273
			c-4.837,8.35-4.564,20.321-6.924,32.004C342.586,178.778,334.146,192.51,334.146,192.51z"/>
		<path style="fill:#FFFFFF;" d="M345.723,177.674c0,0,7.857-30.566,28.366-45.377c-8.737,11.751-12.55,18.881-14.813,25.06
			C357.014,163.536,350.75,172.55,345.723,177.674z"/>
		<path style="fill:#FFFFFF;" d="M345.723,177.674c0,0,13.832-29.988,28.366-45.377c-8.737,11.751-12.55,18.881-14.813,25.06
			C357.014,163.536,350.75,172.55,345.723,177.674z"/>
		<path style="fill:#FFFFFF;" d="M351.209,171.839c0,0,19.111-30.879,46.775-33.837
			C385.903,144.877,358.557,164.373,351.209,171.839z"/>
		<path style="fill:#FFFFFF;" d="M351.209,171.839c0,0,22.633-25.88,46.775-33.837C385.903,144.877,358.557,164.373,351.209,171.839
			z"/>
		<path style="fill:#FFFFFF;" d="M343.287,180.898c0,0,7.651-11.18,18.952-12.15c11.3-0.971,21.498,1.279,28.142-4.277
			c-10.557,9.512-20.656,10.436-28.595,11.155C353.845,176.346,347.163,178.73,343.287,180.898z"/>
		<path style="fill:#FFFFFF;" d="M343.287,180.898c0,0,8.614-8.018,19.913-8.989c11.3-0.971,20.536-1.883,27.18-7.439
			c-10.557,9.512-20.656,10.436-28.595,11.155C353.845,176.346,347.163,178.73,343.287,180.898z"/>
		<path style="fill:#FFFFFF;" d="M336.518,189.303c0,0,4.543-8.497,20.702-10.164c16.16-1.666,20.891-1.328,28.626-6.995
			c-8.346,8.49-16.064,11.198-26.332,12.105C349.247,185.156,342.552,186.52,336.518,189.303z"/>
		<path style="fill:#FFFFFF;" d="M336.518,189.303c0,0,5.57-6.007,21.73-7.674c16.16-1.666,19.864-3.818,27.598-9.485
			c-8.346,8.49-16.064,11.198-26.332,12.105C349.247,185.156,342.552,186.52,336.518,189.303z"/>
		<path style="fill:#FFFFFF;" d="M327.736,202.834c0,0,3.092-10.116,17.013-12.439c13.921-2.322,24.195-2.459,28.847-5.698
			c-5.684,5.783-14.061,8.252-25.11,10.104C337.437,196.654,330.317,200.113,327.736,202.834z"/>
		<path style="fill:#FFFFFF;" d="M327.736,202.834c0,0,3.578-8.306,17.499-10.628c13.921-2.322,23.708-4.269,28.36-7.508
			c-5.684,5.783-14.061,8.252-25.11,10.104C337.437,196.654,330.317,200.113,327.736,202.834z"/>
		<path style="fill:#FFFFFF;" d="M320.336,215.725c0,0,5.926-6.887,17.576-8.763c11.65-1.875,21.368-5.745,28.204-13.162
			c-4.171,2.305-8.904,4.3-18.342,5.846C338.336,201.193,325.153,203.951,320.336,215.725z"/>
		<path style="fill:#FFFFFF;" d="M320.336,215.725c0,0,5.926-6.887,17.576-8.763c11.65-1.875,21.368-5.745,28.204-13.162
			c-4.171,2.305-8.739,6.843-18.176,8.389C338.502,203.736,325.153,203.951,320.336,215.725z"/>
		<path style="fill:#FFFFFF;" d="M313.101,233.833c0,0,3.748-8.736,16.702-12.059c12.954-3.322,22.772-4.019,29.367-15.735
			c-6.795,5.369-15.161,6.899-23.34,8.278C327.652,215.695,315.182,221.711,313.101,233.833z"/>
		<path style="fill:#FFFFFF;" d="M313.101,233.833c0,0,3.748-8.736,16.702-12.059c12.954-3.322,22.772-4.019,29.367-15.735
			c-6.795,5.369-14.63,9.316-22.809,10.694C328.182,218.112,315.182,221.711,313.101,233.833z"/>
		<path style="fill:#FFFFFF;" d="M310.339,243.829c0,0,2.898-11.307,15.319-17.335c12.42-6.028,24.291-4.866,30.919-11.3
			c-4.798,7.969-15.605,11.406-23.716,13.582C324.749,230.953,311.987,238.421,310.339,243.829z"/>
		<path style="fill:#FFFFFF;" d="M310.339,243.829c0,0,2.779-9.628,15.199-15.656c12.421-6.028,24.959-4.739,31.038-12.979
			c-4.798,7.969-15.605,11.406-23.716,13.582C324.749,230.953,311.987,238.421,310.339,243.829z"/>
		<path style="fill:#FFFFFF;" d="M308.914,252.659c0,0,0.718-12.416,16.823-18.487c16.105-6.071,17.055-1.613,28.885-11.228
			c-8.022,11.868-16.879,13.128-27.05,16.345C317.4,242.506,311.812,247.492,308.914,252.659z"/>
		<path style="fill:#FFFFFF;" d="M308.914,252.659c0,0,0.575-9.999,16.68-16.071c16.105-6.071,17.199-4.029,29.028-13.645
			c-8.022,11.868-16.879,13.128-27.05,16.345C317.4,242.506,311.812,247.492,308.914,252.659z"/>
		<path style="fill:#FFFFFF;" d="M306.749,264.569c0,0,0.718-12.416,16.823-18.487c16.105-6.071,17.055-1.613,28.885-11.228
			c-8.022,11.868-16.879,13.128-27.05,16.345C315.234,254.417,309.646,259.402,306.749,264.569z"/>
		<path style="fill:#FFFFFF;" d="M306.749,264.569c0,0,0.575-9.999,16.68-16.071c16.105-6.071,17.199-4.029,29.028-13.645
			c-8.022,11.868-16.879,13.128-27.05,16.345C315.234,254.417,309.646,259.402,306.749,264.569z"/>
		<path style="fill:#FFFFFF;" d="M304.583,276.48c0,0,0.718-12.416,16.823-18.487c16.105-6.071,17.055-1.613,28.885-11.228
			c-8.022,11.868-16.879,13.128-27.05,16.345C313.069,266.327,307.48,271.313,304.583,276.48z"/>
		<path style="fill:#FFFFFF;" d="M304.583,276.48c0,0,0.575-9.999,16.68-16.071c16.105-6.071,17.199-4.029,29.028-13.645
			c-8.022,11.868-16.879,13.128-27.05,16.345C313.069,266.327,307.48,271.313,304.583,276.48z"/>
		<path style="fill:#FFFFFF;" d="M308.073,270.218c-0.395-2.63-0.474-5.183-0.468-7.771c0.024-2.578,0.16-5.152,0.427-7.71
			c0.519-5.119,1.483-10.18,2.761-15.151c1.284-4.971,2.911-9.847,4.806-14.61c0.493-1.183,0.94-2.386,1.47-3.553l1.568-3.51
			c1.126-2.302,2.212-4.623,3.451-6.866c4.783-9.065,10.572-17.561,16.899-25.594l1.182-1.51l1.23-1.472l2.46-2.944
			c1.658-1.947,3.394-3.825,5.087-5.74c1.751-1.863,3.52-3.709,5.297-5.544c1.828-1.786,3.689-3.54,5.565-5.273
			c-1.748,1.865-3.512,3.711-5.308,5.523l-5.212,5.606c-1.672,1.927-3.387,3.816-5.023,5.773l-2.426,2.958l-1.213,1.479
			l-1.165,1.517c-6.234,8.065-11.92,16.578-16.592,25.633c-1.211,2.241-2.27,4.557-3.367,6.854l-1.525,3.499
			c-0.516,1.163-0.949,2.361-1.427,3.539c-1.837,4.743-3.405,9.59-4.631,14.521c-1.22,4.931-2.127,9.941-2.591,14.991
			c-0.241,2.524-0.351,5.058-0.352,7.587c0.013,2.516,0.127,5.085,0.514,7.505L308.073,270.218z"/>
	</g>
	<g>
		<g>
			<g>
				<path style="fill:#C8F2FC;" d="M417.032,375.582c0,0,30.425-39.498,12.579-68.178c-17.846-28.68-9.56-41.78-12.447-71.086
					c-2.887-29.307-25.714-40.137-48.282-30.515c-22.568,9.622-27.011,51.215-6.34,82.029
					c20.671,30.814,39.552,83.822,28.866,101.484C380.722,406.978,402.134,394.811,417.032,375.582z"/>
			</g>
			<g>
				<g>
					<g>
						<path style="fill:#A7DCEA;" d="M388.468,398.005c-0.033-0.029-0.065-0.062-0.093-0.098c-0.238-0.306-0.184-0.748,0.122-0.986
							c0.091-0.072,9.203-7.265,16.018-20.733c6.28-12.412,11.842-32.86,2.671-59.792c-17.93-52.656-27.095-83.615-6.973-107.572
							c0.25-0.298,0.693-0.336,0.99-0.086c0.299,0.268,0.336,0.693,0.086,0.99c-19.636,23.379-10.54,54.039,7.228,106.216
							c9.339,27.426,3.644,48.277-2.778,60.939c-6.962,13.728-16.286,21.076-16.379,21.149
							C389.091,398.24,388.717,398.222,388.468,398.005z"/>
					</g>
					<g>
						<path style="fill:#A7DCEA;" d="M383.453,246.9c-12.855-11.224-23.242-28.529-23.361-28.73
							c-0.198-0.334-0.09-0.765,0.244-0.964c0.333-0.199,0.765-0.088,0.964,0.244c0.137,0.23,13.879,23.123,29.163,33.041
							c0.326,0.212,0.418,0.647,0.207,0.972c-0.212,0.326-0.647,0.419-0.972,0.207C387.576,250.293,385.482,248.671,383.453,246.9z"
							/>
					</g>
					<g>
						<path style="fill:#A7DCEA;" d="M395.681,280.198c-0.026-0.023-0.051-0.048-0.074-0.075c-0.251-0.296-0.215-0.739,0.081-0.991
							c9.232-7.852,15.694-24.971,15.758-25.143c0.136-0.364,0.541-0.548,0.904-0.413c0.364,0.137,0.548,0.54,0.413,0.904
							c-0.267,0.717-6.652,17.633-16.165,25.723C396.329,280.431,395.939,280.423,395.681,280.198z"/>
					</g>
					<g>
						<path style="fill:#A7DCEA;" d="M373.846,281.604c-0.963-0.841-1.92-1.715-2.865-2.625c-0.28-0.269-0.289-0.714-0.02-0.994
							c0.27-0.281,0.738-0.278,0.994-0.02c13.647,13.123,29.76,18.909,29.922,18.966c0.362,0.129,0.559,0.53,0.429,0.897
							c-0.129,0.366-0.531,0.558-0.897,0.429C401.257,298.203,386.998,293.086,373.846,281.604z"/>
					</g>
					<g>
						<path style="fill:#A7DCEA;" d="M396.032,328.633c-1.724-1.505-3.49-3.269-5.249-5.336c-0.252-0.296-0.216-0.739,0.08-0.991
							c0.296-0.252,0.738-0.22,0.991,0.079c10.038,11.8,20.521,13.424,20.625,13.439c0.384,0.056,0.65,0.411,0.596,0.796
							c-0.056,0.385-0.412,0.651-0.796,0.596C411.905,337.162,404.484,336.011,396.032,328.633z"/>
					</g>
					<g>
						<path style="fill:#A7DCEA;" d="M408.408,319.864c-0.267-0.233-0.321-0.636-0.113-0.933c0.096-0.137,9.642-13.83,10.68-21.817
							c0.05-0.384,0.403-0.656,0.788-0.606c0.385,0.051,0.656,0.403,0.606,0.788c-1.083,8.329-10.523,21.87-10.924,22.443
							c-0.223,0.318-0.661,0.395-0.979,0.172C408.446,319.896,408.427,319.88,408.408,319.864z"/>
					</g>
					<g>
						<path style="fill:#A7DCEA;" d="M411.089,358.1c-0.066-0.058-0.122-0.128-0.164-0.211c-0.176-0.346-0.038-0.769,0.308-0.945
							c0.108-0.055,10.813-5.586,15.484-15.65c0.163-0.352,0.581-0.505,0.934-0.342c0.357,0.168,0.505,0.582,0.342,0.934
							c-4.881,10.515-15.666,16.08-16.123,16.311C411.606,358.332,411.299,358.284,411.089,358.1z"/>
					</g>
				</g>
			</g>
		</g>
	</g>
	<g>
		<g>
			<g>
				<path style="fill:#FFFFFF;" d="M425.624,313.68l-1.409-1.041c0.102-0.138,10.27-14.081,16.888-37.581
					c6.103-21.672,10.348-56.145-4.088-97.302l1.654-0.58c14.6,41.624,10.288,76.504,4.099,98.435
					C436.057,299.393,425.728,313.54,425.624,313.68z"/>
			</g>
			<g>
				<path style="fill:#FFFFFF;" d="M445.957,210.298l-0.519-0.262c-18.845-9.52-20.319-20.958-20.372-21.441l1.742-0.196
					c0.012,0.108,1.475,10.809,18.898,19.806c10.572-9.351,9.147-22.295,9.132-22.426l1.739-0.213
					c0.072,0.581,1.614,14.351-10.177,24.356L445.957,210.298z"/>
			</g>
			<g>
				<path style="fill:#FFFFFF;" d="M447.815,232.348l-0.489-0.21c-17.097-7.353-23.139-21.472-23.388-22.069l1.617-0.674
					c0.058,0.139,5.925,13.794,21.971,20.919c9.668-8.267,13.038-23.499,13.071-23.654l1.713,0.369
					c-0.144,0.666-3.631,16.418-14.082,24.983L447.815,232.348z"/>
			</g>
			<g>
				<path style="fill:#FFFFFF;" d="M447.061,248.548l-0.038-1.752c0.135-0.003,13.575-0.467,22.04-13.479l1.469,0.956
					C461.544,248.086,447.648,248.535,447.061,248.548z"/>
			</g>
			<g>
				<path style="fill:#FFFFFF;" d="M445.308,260.97c-0.41-0.062-10.171-1.699-20.134-17.742l1.489-0.925
					c9.489,15.279,18.817,16.92,18.91,16.935L445.308,260.97z"/>
			</g>
		</g>
		<path style="fill:#FFFFFF;" d="M442.306,176.456c-0.414,2.751-2.981,4.646-5.732,4.231c-2.751-0.414-4.646-2.981-4.231-5.732
			s2.981-4.646,5.732-4.231S442.721,173.704,442.306,176.456z"/>
		
			<ellipse transform="matrix(0.8069 -0.5907 0.5907 0.8069 -21.1788 304.9077)" style="fill:#FFFFFF;" cx="455.773" cy="184.847" rx="5.038" ry="5.038"/>
		<path style="fill:#FFFFFF;" d="M466.313,207.52c-0.414,2.751-2.981,4.646-5.732,4.231c-2.751-0.414-4.646-2.981-4.231-5.732
			s2.981-4.646,5.732-4.231C464.832,202.202,466.727,204.769,466.313,207.52z"/>
		<path style="fill:#FFFFFF;" d="M430.962,187.797c-0.414,2.751-2.981,4.646-5.732,4.231c-2.751-0.414-4.646-2.981-4.231-5.732
			c0.414-2.751,2.981-4.646,5.732-4.231C429.482,182.48,431.377,185.046,430.962,187.797z"/>
		<path style="fill:#FFFFFF;" d="M429.852,209.655c-0.414,2.751-2.981,4.646-5.732,4.231c-2.751-0.414-4.646-2.981-4.231-5.732
			c0.414-2.751,2.981-4.646,5.732-4.231C428.372,204.338,430.266,206.904,429.852,209.655z"/>
		<path style="fill:#FFFFFF;" d="M430.324,242.855c-0.414,2.751-2.981,4.646-5.732,4.231c-2.751-0.414-4.646-2.981-4.231-5.732
			s2.981-4.646,5.732-4.231C428.844,237.537,430.739,240.103,430.324,242.855z"/>
		<path style="fill:#FFFFFF;" d="M474.741,234.173c-0.414,2.751-2.981,4.646-5.732,4.231c-2.751-0.414-4.646-2.981-4.231-5.732
			c0.414-2.751,2.981-4.646,5.732-4.231C473.261,228.855,475.156,231.421,474.741,234.173z"/>
	</g>
	<g>
		<g>
			<path style="fill:#41ACC9;" d="M401.212,413.023c0,0-2.351-72.306,39.67-124.885c42.021-52.58,77.582-6.228,42.672,35.215
				c-34.909,41.443-48.811,74.535-59.969,115.06c-11.158,40.525-41.348,56.042-41.348,56.042S399.593,471.636,401.212,413.023z"/>
		</g>
		<g>
			<g>
				<path style="fill:#83D7EA;" d="M386.156,489.769c0.016-0.161,0.082-0.318,0.198-0.449c0.228-0.257,22.973-26.393,29.434-85.292
					c7.607-69.356,55.992-111.444,70.64-122.692c0.35-0.269,0.851-0.203,1.119,0.146c0.269,0.351,0.203,0.85-0.146,1.119
					c-14.523,11.151-62.488,52.873-70.027,121.601c-6.521,59.458-29.597,85.919-29.829,86.18c-0.293,0.328-0.797,0.357-1.126,0.064
					C386.22,490.269,386.13,490.015,386.156,489.769z"/>
			</g>
			<g>
				<path style="fill:#83D7EA;" d="M455.037,312.511c0.041-0.396,0.371-0.708,0.779-0.715c19.023-0.346,30.262-5.141,30.374-5.19
					c0.404-0.176,0.874,0.009,1.049,0.414c0.178,0.405-0.01,0.874-0.414,1.049c-0.466,0.203-11.643,4.97-30.981,5.321
					c-0.441,0.009-0.803-0.342-0.811-0.783C455.032,312.575,455.033,312.542,455.037,312.511z"/>
			</g>
			<g>
				<path style="fill:#83D7EA;" d="M442.732,299.647c0.236-2.307,0.664-4.684,1.345-7.087c0.12-0.424,0.561-0.671,0.985-0.55
					c0.424,0.12,0.673,0.56,0.55,0.985c-4.332,15.298,2.123,29.973,2.189,30.12c0.18,0.404-0.001,0.874-0.402,1.055
					c-0.402,0.18-0.874,0-1.055-0.401C446.11,323.242,441.411,312.553,442.732,299.647z"/>
			</g>
			<g>
				<path style="fill:#83D7EA;" d="M416.831,336.057c0.044-0.432,0.426-0.751,0.86-0.714c0.439,0.036,0.765,0.422,0.728,0.862
					c-1.914,22.831,6.868,30.769,6.956,30.847c0.332,0.287,0.37,0.792,0.08,1.124c-0.287,0.332-0.789,0.37-1.122,0.084
					c-0.389-0.334-9.493-8.453-7.504-32.188C416.83,336.067,416.831,336.062,416.831,336.057z"/>
			</g>
			<g>
				<path style="fill:#83D7EA;" d="M429.054,354.896c0.008-0.08,0.028-0.158,0.06-0.232c0.177-0.404,0.647-0.588,1.051-0.412
					c0.023,0.01,0.045,0.021,0.066,0.033c2.004,0.105,18.82-1.978,25.616-6.078c0.377-0.228,0.867-0.106,1.095,0.271
					c0.228,0.376,0.105,0.868-0.271,1.095c-6.709,4.048-26.055,7.175-27.341,6.046C429.128,355.443,429.027,355.162,429.054,354.896
					z"/>
			</g>
			<g>
				<path style="fill:#83D7EA;" d="M415.067,409.984c0.001-0.007,0.001-0.013,0.002-0.021c0.109-0.843,1.07-1.304,3.64-2.536
					c4.216-2.021,11.27-5.402,16.56-11.777c0.281-0.339,0.784-0.386,1.123-0.104c0.339,0.28,0.387,0.784,0.104,1.123
					c-5.512,6.643-13.048,10.256-17.096,12.197c-1.223,0.586-2.485,1.191-2.792,1.478c-0.126,0.34-0.474,0.562-0.85,0.513
					C415.328,410.801,415.023,410.414,415.067,409.984z M416.651,410.168c0,0.001,0,0.001,0,0.002
					C416.651,410.169,416.651,410.169,416.651,410.168z"/>
			</g>
			<g>
				<path style="fill:#83D7EA;" d="M403.975,406.005c0.029-0.286,0.212-0.546,0.497-0.66c0.409-0.164,0.874,0.035,1.037,0.444
					c2.975,7.427,9.324,11.528,9.388,11.569c0.371,0.236,0.481,0.729,0.245,1.102c-0.236,0.372-0.73,0.482-1.102,0.245
					c-0.278-0.177-6.849-4.423-10.013-12.322C403.979,406.258,403.963,406.129,403.975,406.005z"/>
			</g>
		</g>
	</g>
	<g>
		<path style="fill:#FFFFFF;" d="M191.566,263.937c0,0-0.551-16.102,4.27-24.892c4.821-8.791,11.902-30.468,12.045-41.511
			c2.236,16.697,2.155,27.093-2.091,36.893C201.543,244.227,192.218,257.415,191.566,263.937z"/>
		<path style="fill:#FFFFFF;" d="M191.566,263.937c0,0-0.551-16.102,4.27-24.892c4.821-8.791,11.902-30.468,12.045-41.511
			c2.236,16.697-1.689,26.412-5.935,36.212C197.699,243.546,192.218,257.415,191.566,263.937z"/>
		<path style="fill:#FFFFFF;" d="M186.962,285.882c0,0,1.349-16.055,7.171-24.216c5.822-8.162,15.407-28.855,16.849-39.805
			c0.255,16.844-1.05,27.158-6.421,36.391C199.191,267.483,188.378,279.482,186.962,285.882z"/>
		<path style="fill:#FFFFFF;" d="M186.962,285.882c0,0,1.349-16.055,7.171-24.216c5.822-8.162,15.407-28.855,16.849-39.805
			c0.255,16.844-4.787,26.029-10.158,35.261C195.454,266.354,188.378,279.482,186.962,285.882z"/>
		<path style="fill:#FFFFFF;" d="M187.031,307.107c0,0,1.349-16.055,7.171-24.217c5.822-8.162,15.407-28.854,16.849-39.804
			c0.255,16.844-1.05,27.158-6.42,36.39C199.26,288.709,188.446,300.707,187.031,307.107z"/>
		<path style="fill:#FFFFFF;" d="M187.031,307.107c0,0,1.349-16.055,7.171-24.217c5.822-8.162,15.407-28.854,16.849-39.804
			c0.255,16.844-4.787,26.029-10.157,35.261C195.522,287.579,188.446,300.707,187.031,307.107z"/>
		<path style="fill:#FFFFFF;" d="M190.718,248.679c0,0-1.608-10.606,0.88-22.533c2.488-11.927,7.924-18.9,9.781-25.76
			c1.857-6.86,1.815-15.961,1.815-15.961s3.366,12.733-0.558,28.143C198.712,227.976,191.227,241.188,190.718,248.679z"/>
		<path style="fill:#FFFFFF;" d="M190.718,248.679c0,0-1.608-10.606,0.88-22.533c2.488-11.927,7.924-18.9,9.781-25.76
			c1.857-6.86,1.815-15.961,1.815-15.961s2.791,13.56-3.138,28.314C192.242,232.18,191.227,241.188,190.718,248.679z"/>
		<path style="fill:#FFFFFF;" d="M186.553,233.591c0,0-4.376-8.44-3.142-22.161c1.234-13.721,10.559-37.682,9.344-44.482
			c3.175,8.393,3.075,24.818-0.639,38.539C188.402,219.208,186.553,233.591,186.553,233.591z"/>
		<path style="fill:#FFFFFF;" d="M186.553,233.591c0,0-4.376-8.44-3.142-22.161c1.234-13.721,10.559-37.682,9.344-44.482
			c3.175,8.393-1.381,24.141-5.094,37.862C183.947,218.531,186.553,233.591,186.553,233.591z"/>
		<path style="fill:#FFFFFF;" d="M180.632,218.471c0,0-5.694-14.16-3.844-27.304c1.85-13.143,2.431-29.875,1.338-34.251
			c4.251,7.641,8.623,25.143,6.153,34.76C181.808,201.294,178.909,211.724,180.632,218.471z"/>
		<path style="fill:#FFFFFF;" d="M180.632,218.471c0,0-5.694-14.16-3.844-27.304c1.85-13.143,2.431-29.875,1.338-34.251
			c4.251,7.641,3.963,24.634,1.493,34.251C177.148,200.784,178.909,211.724,180.632,218.471z"/>
		<path style="fill:#FFFFFF;" d="M175.121,206.087c0,0-8.132-11.492-8.144-22.895c-0.012-11.402-4.339-34.68-6.683-37.516
			c7.042,11.071,13.129,25.319,13.066,33.405C173.297,187.168,171.52,199.616,175.121,206.087z"/>
		<path style="fill:#FFFFFF;" d="M175.121,206.087c0,0-8.132-11.492-8.144-22.895c-0.012-11.402-4.339-34.68-6.683-37.516
			c7.042,11.071,9.418,25.196,9.355,33.282S171.52,199.616,175.121,206.087z"/>
		<path style="fill:#FFFFFF;" d="M165.854,192.51c0,0-13.314-19.657-14.09-32.145c-0.776-12.488-1.981-24.162-3.635-25.273
			c4.837,8.35,9.463,22.107,11.824,33.79C162.313,180.564,165.854,192.51,165.854,192.51z"/>
		<path style="fill:#FFFFFF;" d="M165.854,192.51c0,0-13.314-19.657-14.09-32.145c-0.776-12.488-1.981-24.162-3.635-25.273
			c4.837,8.35,4.564,20.321,6.924,32.004C157.414,178.778,165.854,192.51,165.854,192.51z"/>
		<path style="fill:#FFFFFF;" d="M154.277,177.674c0,0-7.857-30.566-28.366-45.377c8.737,11.751,12.55,18.881,14.813,25.06
			C142.986,163.536,149.25,172.55,154.277,177.674z"/>
		<path style="fill:#FFFFFF;" d="M154.277,177.674c0,0-13.832-29.988-28.366-45.377c8.737,11.751,12.55,18.881,14.813,25.06
			C142.986,163.536,149.25,172.55,154.277,177.674z"/>
		<path style="fill:#FFFFFF;" d="M148.791,171.839c0,0-19.111-30.879-46.775-33.837
			C114.097,144.877,141.443,164.373,148.791,171.839z"/>
		<path style="fill:#FFFFFF;" d="M148.791,171.839c0,0-22.633-25.88-46.775-33.837C114.097,144.877,141.443,164.373,148.791,171.839
			z"/>
		<path style="fill:#FFFFFF;" d="M156.713,180.898c0,0-7.652-11.18-18.952-12.15c-11.3-0.971-21.498,1.279-28.142-4.277
			c10.557,9.512,20.656,10.436,28.595,11.155C146.155,176.346,152.837,178.73,156.713,180.898z"/>
		<path style="fill:#FFFFFF;" d="M156.713,180.898c0,0-8.614-8.018-19.913-8.989c-11.3-0.971-20.536-1.883-27.18-7.439
			c10.557,9.512,20.656,10.436,28.595,11.155C146.155,176.346,152.837,178.73,156.713,180.898z"/>
		<path style="fill:#FFFFFF;" d="M163.482,189.303c0,0-4.543-8.497-20.702-10.164c-16.16-1.666-20.891-1.328-28.626-6.995
			c8.347,8.49,16.064,11.198,26.332,12.105C150.753,185.156,157.448,186.52,163.482,189.303z"/>
		<path style="fill:#FFFFFF;" d="M163.482,189.303c0,0-5.57-6.007-21.73-7.674s-19.864-3.818-27.598-9.485
			c8.347,8.49,16.064,11.198,26.332,12.105C150.753,185.156,157.448,186.52,163.482,189.303z"/>
		<path style="fill:#FFFFFF;" d="M172.264,202.834c0,0-3.092-10.116-17.013-12.439c-13.921-2.322-24.195-2.459-28.847-5.698
			c5.684,5.783,14.061,8.252,25.11,10.104C162.563,196.654,169.683,200.113,172.264,202.834z"/>
		<path style="fill:#FFFFFF;" d="M172.264,202.834c0,0-3.578-8.306-17.499-10.628c-13.921-2.322-23.708-4.269-28.36-7.508
			c5.684,5.783,14.061,8.252,25.11,10.104C162.563,196.654,169.683,200.113,172.264,202.834z"/>
		<path style="fill:#FFFFFF;" d="M179.664,215.725c0,0-5.926-6.887-17.576-8.763c-11.65-1.875-21.368-5.745-28.204-13.162
			c4.171,2.305,8.904,4.3,18.342,5.846C161.663,201.193,174.847,203.951,179.664,215.725z"/>
		<path style="fill:#FFFFFF;" d="M179.664,215.725c0,0-5.926-6.887-17.576-8.763c-11.65-1.875-21.368-5.745-28.204-13.162
			c4.171,2.305,8.739,6.843,18.176,8.389C161.498,203.736,174.847,203.951,179.664,215.725z"/>
		<path style="fill:#FFFFFF;" d="M186.899,233.833c0,0-3.748-8.736-16.702-12.059c-12.954-3.322-22.772-4.019-29.367-15.735
			c6.795,5.369,15.161,6.899,23.34,8.278C172.348,215.695,184.818,221.711,186.899,233.833z"/>
		<path style="fill:#FFFFFF;" d="M186.899,233.833c0,0-3.748-8.736-16.702-12.059c-12.954-3.322-22.772-4.019-29.367-15.735
			c6.795,5.369,14.63,9.316,22.809,10.694C171.818,218.112,184.818,221.711,186.899,233.833z"/>
		<path style="fill:#FFFFFF;" d="M189.661,243.829c0,0-2.898-11.307-15.319-17.335c-12.42-6.028-24.291-4.866-30.919-11.3
			c4.798,7.969,15.605,11.406,23.716,13.582C175.251,230.953,188.013,238.421,189.661,243.829z"/>
		<path style="fill:#FFFFFF;" d="M189.661,243.829c0,0-2.779-9.628-15.199-15.656c-12.421-6.028-24.959-4.739-31.038-12.979
			c4.798,7.969,15.605,11.406,23.716,13.582C175.251,230.953,188.013,238.421,189.661,243.829z"/>
		<path style="fill:#FFFFFF;" d="M191.086,252.659c0,0-0.718-12.416-16.823-18.487c-16.105-6.071-17.055-1.613-28.885-11.228
			c8.022,11.868,16.879,13.128,27.05,16.345C182.6,242.506,188.188,247.492,191.086,252.659z"/>
		<path style="fill:#FFFFFF;" d="M191.086,252.659c0,0-0.575-9.999-16.68-16.071c-16.105-6.071-17.199-4.029-29.028-13.645
			c8.022,11.868,16.879,13.128,27.05,16.345C182.6,242.506,188.188,247.492,191.086,252.659z"/>
		<path style="fill:#FFFFFF;" d="M193.251,264.569c0,0-0.718-12.416-16.823-18.487c-16.105-6.071-17.055-1.613-28.885-11.228
			c8.022,11.868,16.879,13.128,27.05,16.345C184.766,254.417,190.354,259.402,193.251,264.569z"/>
		<path style="fill:#FFFFFF;" d="M193.251,264.569c0,0-0.575-9.999-16.68-16.071c-16.105-6.071-17.199-4.029-29.028-13.645
			c8.022,11.868,16.879,13.128,27.05,16.345C184.766,254.417,190.354,259.402,193.251,264.569z"/>
		<path style="fill:#FFFFFF;" d="M195.417,276.48c0,0-0.718-12.416-16.823-18.487c-16.105-6.071-17.055-1.613-28.885-11.228
			c8.022,11.868,16.879,13.128,27.05,16.345C186.931,266.327,192.52,271.313,195.417,276.48z"/>
		<path style="fill:#FFFFFF;" d="M195.417,276.48c0,0-0.575-9.999-16.68-16.071c-16.105-6.071-17.199-4.029-29.028-13.645
			c8.022,11.868,16.879,13.128,27.05,16.345C186.931,266.327,192.52,271.313,195.417,276.48z"/>
		<path style="fill:#FFFFFF;" d="M191.927,270.218c0.395-2.63,0.474-5.183,0.468-7.771c-0.024-2.578-0.16-5.152-0.427-7.71
			c-0.519-5.119-1.483-10.18-2.761-15.151c-1.284-4.971-2.911-9.847-4.806-14.61c-0.493-1.183-0.94-2.386-1.47-3.553l-1.568-3.51
			c-1.126-2.302-2.212-4.623-3.451-6.866c-4.783-9.065-10.572-17.561-16.899-25.594l-1.182-1.51l-1.23-1.472l-2.459-2.944
			c-1.658-1.947-3.394-3.825-5.087-5.74c-1.751-1.863-3.52-3.709-5.298-5.544c-1.828-1.786-3.689-3.54-5.565-5.273
			c1.749,1.865,3.512,3.711,5.308,5.523l5.212,5.606c1.672,1.927,3.387,3.816,5.023,5.773l2.426,2.958l1.213,1.479l1.165,1.517
			c6.234,8.065,11.92,16.578,16.592,25.633c1.211,2.241,2.27,4.557,3.367,6.854l1.525,3.499c0.516,1.163,0.949,2.361,1.427,3.539
			c1.838,4.743,3.405,9.59,4.631,14.521c1.22,4.931,2.127,9.941,2.591,14.991c0.241,2.524,0.351,5.058,0.352,7.587
			c-0.013,2.516-0.127,5.085-0.514,7.505L191.927,270.218z"/>
	</g>
	<g>
		<g>
			<g>
				<path style="fill:#C8F2FC;" d="M82.968,375.582c0,0-30.425-39.498-12.579-68.178c17.846-28.68,9.56-41.78,12.447-71.086
					c2.887-29.307,25.714-40.137,48.282-30.515c22.568,9.622,27.011,51.215,6.34,82.029
					c-20.671,30.814-39.552,83.822-28.866,101.484C119.278,406.978,97.866,394.811,82.968,375.582z"/>
			</g>
			<g>
				<g>
					<g>
						<path style="fill:#A7DCEA;" d="M111.532,398.005c0.033-0.029,0.065-0.062,0.093-0.098c0.238-0.306,0.184-0.748-0.122-0.986
							c-0.092-0.072-9.203-7.265-16.018-20.733c-6.28-12.412-11.842-32.86-2.671-59.792c17.93-52.656,27.095-83.615,6.973-107.572
							c-0.25-0.298-0.693-0.336-0.99-0.086c-0.299,0.268-0.336,0.693-0.086,0.99c19.636,23.379,10.54,54.039-7.228,106.216
							c-9.339,27.426-3.644,48.277,2.778,60.939c6.962,13.728,16.286,21.076,16.379,21.149
							C110.909,398.24,111.283,398.222,111.532,398.005z"/>
					</g>
					<g>
						<path style="fill:#A7DCEA;" d="M116.547,246.9c12.855-11.224,23.242-28.529,23.361-28.73c0.199-0.334,0.09-0.765-0.244-0.964
							c-0.333-0.199-0.765-0.088-0.964,0.244c-0.137,0.23-13.879,23.123-29.163,33.041c-0.326,0.212-0.418,0.647-0.207,0.972
							c0.212,0.326,0.647,0.419,0.972,0.207C112.424,250.293,114.518,248.671,116.547,246.9z"/>
					</g>
					<g>
						<path style="fill:#A7DCEA;" d="M104.319,280.198c0.026-0.023,0.051-0.048,0.074-0.075c0.251-0.296,0.215-0.739-0.081-0.991
							c-9.232-7.852-15.694-24.971-15.758-25.143c-0.136-0.364-0.541-0.548-0.904-0.413c-0.364,0.137-0.549,0.54-0.413,0.904
							c0.267,0.717,6.652,17.633,16.165,25.723C103.67,280.431,104.061,280.423,104.319,280.198z"/>
					</g>
					<g>
						<path style="fill:#A7DCEA;" d="M126.154,281.604c0.963-0.841,1.92-1.715,2.865-2.625c0.28-0.269,0.289-0.714,0.02-0.994
							c-0.27-0.281-0.738-0.278-0.994-0.02c-13.647,13.123-29.76,18.909-29.922,18.966c-0.362,0.129-0.559,0.53-0.429,0.897
							c0.129,0.366,0.531,0.558,0.897,0.429C98.744,298.203,113.002,293.086,126.154,281.604z"/>
					</g>
					<g>
						<path style="fill:#A7DCEA;" d="M103.968,328.633c1.724-1.505,3.49-3.269,5.249-5.336c0.252-0.296,0.216-0.739-0.08-0.991
							c-0.295-0.252-0.738-0.22-0.991,0.079c-10.038,11.8-20.521,13.424-20.625,13.439c-0.384,0.056-0.65,0.411-0.596,0.796
							c0.056,0.385,0.412,0.651,0.796,0.596C88.095,337.162,95.516,336.011,103.968,328.633z"/>
					</g>
					<g>
						<path style="fill:#A7DCEA;" d="M91.592,319.864c0.267-0.233,0.321-0.636,0.113-0.933c-0.096-0.137-9.642-13.83-10.68-21.817
							c-0.05-0.384-0.403-0.656-0.788-0.606c-0.385,0.051-0.656,0.403-0.606,0.788c1.083,8.329,10.523,21.87,10.924,22.443
							c0.223,0.318,0.661,0.395,0.979,0.172C91.554,319.896,91.573,319.88,91.592,319.864z"/>
					</g>
					<g>
						<path style="fill:#A7DCEA;" d="M88.911,358.1c0.066-0.058,0.122-0.128,0.164-0.211c0.176-0.346,0.038-0.769-0.308-0.945
							c-0.108-0.055-10.813-5.586-15.484-15.65c-0.163-0.352-0.581-0.505-0.934-0.342c-0.356,0.168-0.505,0.582-0.342,0.934
							c4.881,10.515,15.666,16.08,16.123,16.311C88.394,358.332,88.701,358.284,88.911,358.1z"/>
					</g>
				</g>
			</g>
		</g>
	</g>
	<g>
		<g>
			<g>
				<path style="fill:#FFFFFF;" d="M74.376,313.68l1.409-1.041c-0.102-0.138-10.27-14.081-16.888-37.581
					c-6.103-21.672-10.348-56.145,4.088-97.302l-1.654-0.58c-14.6,41.624-10.288,76.504-4.099,98.435
					C63.943,299.393,74.272,313.54,74.376,313.68z"/>
			</g>
			<g>
				<path style="fill:#FFFFFF;" d="M54.042,210.298l0.519-0.262c18.845-9.52,20.319-20.958,20.373-21.441l-1.742-0.196
					c-0.012,0.108-1.475,10.809-18.898,19.806c-10.572-9.351-9.147-22.295-9.132-22.426l-1.739-0.213
					c-0.072,0.581-1.614,14.351,10.177,24.356L54.042,210.298z"/>
			</g>
			<g>
				<path style="fill:#FFFFFF;" d="M52.185,232.348l0.489-0.21c17.097-7.353,23.139-21.472,23.388-22.069l-1.618-0.674
					c-0.058,0.139-5.925,13.794-21.97,20.919c-9.669-8.267-13.038-23.499-13.071-23.654l-1.713,0.369
					c0.144,0.666,3.631,16.418,14.082,24.983L52.185,232.348z"/>
			</g>
			<g>
				<path style="fill:#FFFFFF;" d="M52.939,248.548l0.038-1.752c-0.135-0.003-13.575-0.467-22.04-13.479l-1.469,0.956
					C38.456,248.086,52.352,248.535,52.939,248.548z"/>
			</g>
			<g>
				<path style="fill:#FFFFFF;" d="M54.692,260.97c0.41-0.062,10.171-1.699,20.134-17.742l-1.489-0.925
					c-9.489,15.279-18.817,16.92-18.91,16.935L54.692,260.97z"/>
			</g>
		</g>
		<path style="fill:#FFFFFF;" d="M57.694,176.456c0.414,2.751,2.981,4.646,5.732,4.231s4.646-2.981,4.231-5.732
			c-0.414-2.751-2.981-4.646-5.732-4.231C59.174,171.138,57.279,173.704,57.694,176.456z"/>
		
			<ellipse transform="matrix(0.5939 -0.8045 0.8045 0.5939 -130.7558 110.6489)" style="fill:#FFFFFF;" cx="44.227" cy="184.847" rx="5.038" ry="5.038"/>
		<path style="fill:#FFFFFF;" d="M33.688,207.52c0.414,2.751,2.981,4.646,5.732,4.231c2.751-0.414,4.646-2.981,4.231-5.732
			c-0.414-2.751-2.981-4.646-5.732-4.231S33.273,204.769,33.688,207.52z"/>
		<path style="fill:#FFFFFF;" d="M69.038,187.797c0.414,2.751,2.981,4.646,5.732,4.231c2.751-0.414,4.646-2.981,4.231-5.732
			c-0.414-2.751-2.981-4.646-5.732-4.231C70.518,182.48,68.623,185.046,69.038,187.797z"/>
		<path style="fill:#FFFFFF;" d="M70.148,209.655c0.414,2.751,2.981,4.646,5.732,4.231c2.751-0.414,4.646-2.981,4.231-5.732
			c-0.414-2.751-2.981-4.646-5.732-4.231C71.628,204.338,69.734,206.904,70.148,209.655z"/>
		<path style="fill:#FFFFFF;" d="M69.676,242.855c0.414,2.751,2.981,4.646,5.732,4.231c2.751-0.414,4.646-2.981,4.231-5.732
			s-2.981-4.646-5.732-4.231C71.156,237.537,69.261,240.103,69.676,242.855z"/>
		<path style="fill:#FFFFFF;" d="M25.258,234.173c0.414,2.751,2.981,4.646,5.732,4.231s4.646-2.981,4.231-5.732
			c-0.414-2.751-2.981-4.646-5.732-4.231S24.844,231.421,25.258,234.173z"/>
	</g>
	<g>
		<g>
			<path style="fill:#41ACC9;" d="M98.788,413.023c0,0,2.351-72.306-39.67-124.885c-42.021-52.58-77.581-6.228-42.672,35.215
				c34.909,41.443,48.811,74.535,59.969,115.06c11.158,40.525,41.348,56.042,41.348,56.042S100.407,471.636,98.788,413.023z"/>
		</g>
		<g>
			<g>
				<path style="fill:#83D7EA;" d="M113.844,489.769c-0.016-0.161-0.082-0.318-0.198-0.449
					c-0.228-0.257-22.973-26.393-29.434-85.292c-7.607-69.356-55.992-111.444-70.64-122.692c-0.35-0.269-0.851-0.203-1.119,0.146
					c-0.269,0.351-0.203,0.85,0.146,1.119c14.523,11.151,62.488,52.873,70.027,121.601c6.521,59.458,29.597,85.919,29.829,86.18
					c0.293,0.328,0.797,0.357,1.126,0.064C113.78,490.269,113.87,490.015,113.844,489.769z"/>
			</g>
			<g>
				<path style="fill:#83D7EA;" d="M44.963,312.511c-0.041-0.396-0.371-0.708-0.779-0.715c-19.023-0.346-30.262-5.141-30.374-5.19
					c-0.404-0.176-0.873,0.009-1.049,0.414c-0.178,0.405,0.01,0.874,0.414,1.049c0.466,0.203,11.643,4.97,30.981,5.321
					c0.441,0.009,0.803-0.342,0.811-0.783C44.968,312.575,44.966,312.542,44.963,312.511z"/>
			</g>
			<g>
				<path style="fill:#83D7EA;" d="M57.268,299.647c-0.236-2.307-0.664-4.684-1.345-7.087c-0.119-0.424-0.561-0.671-0.985-0.55
					c-0.424,0.12-0.673,0.56-0.55,0.985c4.332,15.298-2.123,29.973-2.189,30.12c-0.18,0.404,0,0.874,0.402,1.055
					c0.403,0.18,0.874,0,1.055-0.401C53.89,323.242,58.589,312.553,57.268,299.647z"/>
			</g>
			<g>
				<path style="fill:#83D7EA;" d="M83.169,336.057c-0.044-0.432-0.426-0.751-0.86-0.714c-0.439,0.036-0.765,0.422-0.728,0.862
					c1.914,22.831-6.868,30.769-6.956,30.847c-0.332,0.287-0.37,0.792-0.08,1.124c0.287,0.332,0.789,0.37,1.122,0.084
					c0.388-0.334,9.493-8.453,7.504-32.188C83.17,336.067,83.169,336.062,83.169,336.057z"/>
			</g>
			<g>
				<path style="fill:#83D7EA;" d="M70.946,354.896c-0.008-0.08-0.028-0.158-0.06-0.232c-0.176-0.404-0.647-0.588-1.051-0.412
					c-0.023,0.01-0.045,0.021-0.066,0.033c-2.004,0.105-18.82-1.978-25.615-6.078c-0.377-0.228-0.867-0.106-1.095,0.271
					c-0.228,0.376-0.105,0.868,0.271,1.095c6.709,4.048,26.055,7.175,27.34,6.046C70.872,355.443,70.973,355.162,70.946,354.896z"/>
			</g>
			<g>
				<path style="fill:#83D7EA;" d="M84.242,410.857c-0.376,0.049-0.724-0.172-0.85-0.513c-0.307-0.287-1.569-0.892-2.792-1.478
					c-4.048-1.941-11.585-5.554-17.097-12.197c-0.283-0.339-0.235-0.843,0.104-1.123c0.339-0.282,0.842-0.235,1.123,0.104
					c5.289,6.375,12.344,9.757,16.56,11.777c2.57,1.232,3.531,1.693,3.64,2.536c0.001,0.008,0.001,0.014,0.002,0.021
					C84.977,410.414,84.672,410.801,84.242,410.857z M83.349,410.17c0-0.001,0-0.001,0-0.002
					C83.349,410.169,83.349,410.169,83.349,410.17z"/>
			</g>
			<g>
				<path style="fill:#83D7EA;" d="M96.025,406.005c-0.029-0.286-0.212-0.546-0.497-0.66c-0.409-0.164-0.874,0.035-1.037,0.444
					c-2.975,7.427-9.324,11.528-9.388,11.569c-0.371,0.236-0.481,0.729-0.245,1.102c0.236,0.372,0.73,0.482,1.102,0.245
					c0.278-0.177,6.849-4.423,10.013-12.322C96.021,406.258,96.037,406.129,96.025,406.005z"/>
			</g>
		</g>
	</g>
	<g>
		<defs>
			<rect id="SVGID_1_" width="500" height="500"/>
		</defs>
		<clipPath id="SVGID_00000117678193263957289330000001612549377036978073_">
			<use xlink:href="#SVGID_1_"  style="overflow:visible;"/>
		</clipPath>
		<g style="clip-path:url(#SVGID_00000117678193263957289330000001612549377036978073_);">
			<g>
				<g>
					<path style="fill:#C8F2FC;" d="M366.219,517.693c0,0,7.442-40.291,34.777-45.128c27.334-4.837,30.794-17.097,50.297-31.425
						c19.504-14.328,38.659-6.318,45.169,12.764c6.51,19.082-16.48,44.637-46.671,48.92c-30.19,4.283-72.967,21.846-77.898,38.078
						C366.961,557.134,362.643,537.362,366.219,517.693z"/>
				</g>
				<g>
					<g>
						<g>
							<path style="fill:#A7DCEA;" d="M368.194,547.471c0.036,0.004,0.073,0.006,0.111,0.003c0.318-0.023,0.558-0.298,0.536-0.616
								c-0.007-0.095-0.612-9.616,3.88-21.179c4.14-10.656,13.588-25.284,35.09-34.466c42.04-17.951,66-29.348,69.599-54.806
								c0.045-0.316-0.176-0.608-0.491-0.653c-0.328-0.036-0.608,0.176-0.653,0.491c-3.512,24.843-27.252,36.117-68.909,53.906
								c-21.897,9.35-31.518,24.281-35.733,35.161c-4.57,11.795-3.943,21.53-3.936,21.628
								C367.708,547.219,367.925,547.438,368.194,547.471z"/>
						</g>
						<g>
							<path style="fill:#A7DCEA;" d="M463.334,467.562c13.921,1.697,30.205-1.456,30.393-1.493
								c0.313-0.062,0.517-0.365,0.455-0.678c-0.061-0.313-0.367-0.516-0.678-0.455c-0.216,0.043-21.759,4.211-36.215,0.313
								c-0.308-0.083-0.625,0.1-0.708,0.407c-0.083,0.308,0.099,0.625,0.407,0.708C458.995,466.905,461.137,467.294,463.334,467.562
								z"/>
						</g>
						<g>
							<path style="fill:#A7DCEA;" d="M436.261,478.371c0.028,0.003,0.057,0.005,0.086,0.004c0.318-0.009,0.57-0.274,0.562-0.593
								c-0.269-9.956,6.65-23.307,6.719-23.441c0.148-0.283,0.039-0.632-0.244-0.78c-0.284-0.147-0.632-0.039-0.78,0.244
								c-0.291,0.557-7.128,13.749-6.85,24.009C435.762,478.102,435.982,478.336,436.261,478.371z"/>
						</g>
						<g>
							<path style="fill:#A7DCEA;" d="M447.391,492.492c1.043,0.127,2.103,0.232,3.178,0.31c0.318,0.023,0.595-0.216,0.618-0.534
								c0.023-0.319-0.236-0.604-0.534-0.618c-15.517-1.138-27.902-7.812-28.026-7.88c-0.278-0.151-0.631-0.051-0.784,0.23
								c-0.153,0.28-0.05,0.631,0.23,0.784C422.191,484.849,433.149,490.756,447.391,492.492z"/>
						</g>
						<g>
							<path style="fill:#A7DCEA;" d="M406.455,504.753c1.867,0.228,3.915,0.339,6.145,0.279c0.319-0.008,0.57-0.274,0.562-0.593
								c-0.008-0.319-0.271-0.572-0.593-0.562c-12.726,0.342-19.476-5.175-19.542-5.231c-0.245-0.204-0.609-0.172-0.814,0.073
								c-0.204,0.245-0.172,0.609,0.073,0.814C392.524,499.731,397.303,503.637,406.455,504.753z"/>
						</g>
						<g>
							<path style="fill:#A7DCEA;" d="M405.021,492.371c0.289,0.035,0.565-0.153,0.632-0.443c0.031-0.134,3.161-13.489,7.474-18.51
								c0.208-0.242,0.18-0.606-0.062-0.815c-0.242-0.207-0.606-0.18-0.815,0.062c-4.498,5.235-7.593,18.443-7.723,19.003
								c-0.072,0.31,0.122,0.621,0.433,0.693C404.98,492.365,405,492.368,405.021,492.371z"/>
						</g>
						<g>
							<path style="fill:#A7DCEA;" d="M380.17,511.728c0.072,0.009,0.145,0.004,0.219-0.016c0.308-0.082,0.491-0.399,0.408-0.707
								c-0.025-0.096-2.522-9.678,1.066-18.061c0.126-0.293-0.01-0.633-0.304-0.758c-0.298-0.126-0.633,0.011-0.759,0.304
								c-3.749,8.758-1.229,18.408-1.119,18.815C379.745,511.539,379.943,511.7,380.17,511.728z"/>
						</g>
					</g>
				</g>
			</g>
		</g>
		<g style="clip-path:url(#SVGID_00000117678193263957289330000001612549377036978073_);">
			<g>
				<g>
					<path style="fill:#C8F2FC;" d="M133.781,517.693c0,0-7.442-40.291-34.777-45.128c-27.334-4.837-30.794-17.097-50.297-31.425
						c-19.503-14.328-38.659-6.318-45.169,12.764c-6.51,19.082,16.48,44.637,46.671,48.92c30.19,4.283,72.967,21.846,77.899,38.078
						C133.039,557.134,137.357,537.362,133.781,517.693z"/>
				</g>
				<g>
					<g>
						<g>
							<path style="fill:#A7DCEA;" d="M131.806,547.471c-0.036,0.004-0.073,0.006-0.111,0.003c-0.318-0.023-0.558-0.298-0.536-0.616
								c0.007-0.095,0.612-9.616-3.88-21.179c-4.14-10.656-13.588-25.284-35.09-34.466c-42.04-17.951-66.001-29.348-69.599-54.806
								c-0.045-0.316,0.175-0.608,0.491-0.653c0.328-0.036,0.608,0.176,0.653,0.491c3.512,24.843,27.252,36.117,68.909,53.906
								c21.897,9.35,31.518,24.281,35.733,35.161c4.57,11.795,3.943,21.53,3.936,21.628
								C132.292,547.219,132.075,547.438,131.806,547.471z"/>
						</g>
						<g>
							<path style="fill:#A7DCEA;" d="M36.666,467.562c-13.921,1.697-30.205-1.456-30.393-1.493
								c-0.313-0.062-0.517-0.365-0.455-0.678c0.061-0.313,0.367-0.516,0.678-0.455c0.216,0.043,21.759,4.211,36.215,0.313
								c0.308-0.083,0.625,0.1,0.708,0.407c0.083,0.308-0.099,0.625-0.407,0.708C41.005,466.905,38.863,467.294,36.666,467.562z"/>
						</g>
						<g>
							<path style="fill:#A7DCEA;" d="M63.739,478.371c-0.028,0.003-0.057,0.005-0.086,0.004c-0.318-0.009-0.57-0.274-0.562-0.593
								c0.269-9.956-6.65-23.307-6.719-23.441c-0.148-0.283-0.039-0.632,0.244-0.78c0.284-0.147,0.632-0.039,0.78,0.244
								c0.291,0.557,7.128,13.749,6.851,24.009C64.238,478.102,64.019,478.336,63.739,478.371z"/>
						</g>
						<g>
							<path style="fill:#A7DCEA;" d="M52.609,492.492c-1.043,0.127-2.103,0.232-3.178,0.31c-0.318,0.023-0.595-0.216-0.618-0.534
								c-0.023-0.319,0.236-0.604,0.534-0.618c15.517-1.138,27.902-7.812,28.026-7.88c0.278-0.151,0.631-0.051,0.784,0.23
								c0.153,0.28,0.05,0.631-0.23,0.784C77.809,484.849,66.851,490.756,52.609,492.492z"/>
						</g>
						<g>
							<path style="fill:#A7DCEA;" d="M93.545,504.753c-1.867,0.228-3.915,0.339-6.145,0.279c-0.319-0.008-0.57-0.274-0.562-0.593
								c0.008-0.319,0.271-0.572,0.593-0.562c12.726,0.342,19.476-5.175,19.542-5.231c0.245-0.204,0.609-0.172,0.814,0.073
								c0.204,0.245,0.172,0.609-0.073,0.814C107.476,499.731,102.697,503.637,93.545,504.753z"/>
						</g>
						<g>
							<path style="fill:#A7DCEA;" d="M94.979,492.371c-0.289,0.035-0.565-0.153-0.632-0.443c-0.031-0.134-3.161-13.489-7.474-18.51
								c-0.208-0.242-0.18-0.606,0.062-0.815c0.242-0.207,0.606-0.18,0.815,0.062c4.498,5.235,7.593,18.443,7.723,19.003
								c0.072,0.31-0.122,0.621-0.433,0.693C95.02,492.365,94.999,492.368,94.979,492.371z"/>
						</g>
						<g>
							<path style="fill:#A7DCEA;" d="M119.83,511.728c-0.071,0.009-0.145,0.004-0.219-0.016c-0.308-0.082-0.491-0.399-0.408-0.707
								c0.025-0.096,2.522-9.678-1.066-18.061c-0.126-0.293,0.01-0.633,0.304-0.758c0.298-0.126,0.633,0.011,0.759,0.304
								c3.749,8.758,1.229,18.408,1.119,18.815C120.255,511.539,120.057,511.7,119.83,511.728z"/>
						</g>
					</g>
				</g>
			</g>
		</g>
	</g>
	<g>
		<defs>
			<rect id="SVGID_00000047026570055806819730000012503910503345424522_" width="500" height="500"/>
		</defs>
		<clipPath id="SVGID_00000074441721443773304520000012623573310360620453_">
			<use xlink:href="#SVGID_00000047026570055806819730000012503910503345424522_"  style="overflow:visible;"/>
		</clipPath>
	</g>
	<g>
		<defs>
			<rect id="SVGID_00000154384497534260058000000015948392861766124206_" width="500" height="500"/>
		</defs>
		<clipPath id="SVGID_00000120559116649876453020000008254193065777659068_">
			<use xlink:href="#SVGID_00000154384497534260058000000015948392861766124206_"  style="overflow:visible;"/>
		</clipPath>
		<g style="clip-path:url(#SVGID_00000120559116649876453020000008254193065777659068_);">
			<g>
				<g>
					<path style="fill:#210900;" d="M298.174,90.261c0,0,1.565,15.828,10.901,29.64c14.728,21.789,13.817,53.146-29.372,64.42
						c14.418-6.256,25.488-13.194,29.558-27.146c4.07-13.953-1.231-24.301-7.043-34.826S290.361,101.642,298.174,90.261z"/>
					<g>
						<path style="fill:#360D00;" d="M198.178,198.419c-12.404-3.713-24.054-17.35-19.553-44.488
							c4.549-27.426,21.465-44.253,21.636-44.419l0.42,0.428c-0.169,0.166-16.949,16.865-21.464,44.089
							c-5.585,33.67,13.233,42.049,19.133,43.815L198.178,198.419z"/>
					</g>
					<g>
						<path style="fill:#360D00;" d="M319.752,144.515c-1.135-7.88-5.695-15.72-10.523-24.02c-3.513-6.04-7.139-12.285-9.787-19.054
							c-0.079,0.385-0.141,0.776-0.167,1.175c2.623,6.441,6.078,12.407,9.436,18.18c4.797,8.249,9.329,16.04,10.448,23.805
							c1.095,7.601-0.778,14.834-5.276,20.366c-5.426,6.674-21.311,16.77-33.187,17.511l0.037,0.598
							c12.048-0.752,28.081-10.925,33.616-17.731C318.953,159.682,320.872,152.284,319.752,144.515z"/>
					</g>
					<path style="fill:#040100;" d="M307.435,139.174c2.217,18.652-3.137,28.925-9.13,34.304
						c-22.891,20.543-93.391,35.348-111.652,12.13c-9.814-12.478-7.826-32.87-7.826-32.87c14.087-23.87,38.048-63.524,38.048-63.524
						s72.008-7.004,74.499-5.136C293.865,85.946,304.972,118.46,307.435,139.174z"/>
					<path style="fill:#D3826F;" d="M273.487,190.06v-5.777c-2.345-1.281-4.503-3.285-5.874-6.413
						c-4.559-10.406-3.064-25.895-3.064-25.895l-36.761-15.01c0,0,3.361,23.621,0.476,34.386
						c-2.885,10.764-10.011,14.651-10.011,14.651s-4.694,52.903,36.874,54.424c35.968,1.316,26.619-41.357,29.306-50.366H273.487z"
						/>
					<path style="fill:#D07A6A;" d="M264.77,166.326c-0.872-7.59-0.221-14.352-0.221-14.352l-36.761-15.01
						c0,0,3.361,23.621,0.476,34.386c-2.885,10.764-10.011,14.651-10.011,14.651s2.321,8.228,8.303,16.446
						c1.285-9.391,4.145-18.622,8.127-26.85C239.609,165.128,253.533,161.261,264.77,166.326z"/>
					<path style="fill:#C66E5D;" d="M288.915,112.134c0,0,4.358-6.07,8.716,0c4.358,6.07-1.778,15.913-7.211,16.81
						c-5.434,0.896-5.201-1.284-4.851-3.385C285.919,123.457,288.915,112.134,288.915,112.134z"/>
					<path style="fill:#DB907B;" d="M216.907,115.363c0,0-4.882-6.07-9.763,0c-4.882,6.07,1.992,15.913,8.078,16.809
						c6.087,0.896,5.826-1.284,5.434-3.385C220.263,126.686,216.907,115.363,216.907,115.363z"/>
					<path style="fill:#C46A5C;" d="M212.675,128.74c0,0-0.391-0.871-1.957-2.151c-1.565-1.28-2.068-5.326-2.124-7.63
						c-0.056-2.304,1.453-4.609,2.348-5.223s4.584,3.226,4.864,4.404c0.279,1.178,1.342,3.124,0,4.916
						c-1.342,1.792-0.783,2.407,0.279,3.073c1.062,0.666,0.28,1.792-0.279,2.356c-0.559,0.563-1.357-0.461-2.3-1.639
						c-0.943-1.178,0.761-4.056,1.167-4.511c0.406-0.456-2.781-1.531-3.899,2.258c-0.112-1.997,1.957-5.422,4.584-3.325
						c-0.839-3.639-2.311-5.26-3.392-6.011c-1.081-0.751-1.826,1.673-2.236,4.063c-0.41,2.39-0.149,5.462,0.894,6.247
						C211.669,126.35,212.377,127.784,212.675,128.74z"/>
					<path style="fill:#DB907B;" d="M276.9,74.584c0,0,12.763,10.895,14.164,32.14c1.401,21.245-1.712,39.689-14.164,49.261
						c-12.451,9.572-24.442,8.678-39.767,0.233c-11.44-6.303-19.611-24.345-20.078-37.503c-0.467-13.158-0.934-32.147,10.973-44.131
						C239.935,62.6,266.939,67.191,276.9,74.584z"/>
					<path style="fill:#D3826F;" d="M250.557,114.918c0,0,5.137-7.143-1.4-15.198c-7.004-1.051-11.718-2.137-14.592,0
						c-2.874,2.137-3.278,8.414-1.639,11.989c2.979-2.815,4.908-4.83,11.6-2.962C246.783,109.682,250.129,112.062,250.557,114.918z"
						/>
					<path style="fill:#D3826F;" d="M269.826,115.096c0,0-2.108-7.008,2.25-14.499c3.502-1.733,8.794-1.847,8.794-1.847
						l6.588,13.137L269.826,115.096z"/>
					<path style="fill:#D3826F;" d="M276.9,74.584c-9.961-7.393-36.965-11.984-48.872,0c-11.907,11.985-11.44,30.973-10.973,44.131
						c0.467,13.158,8.638,31.2,20.078,37.504c10.738,5.917,19.839,8.12,28.608,5.62l0,0c-6.178,0.873-12.655,1.462-25.262-7.254
						c-12.607-8.716-23.176-44.106-0.863-71.907c0,0,11.348-4.547,24.253-0.765c22.696,6.652,20.854,25.897,21.544,28.324
						c1.909,6.718,4.84,11.776,5.474,15.573c0.609-5.956,0.032-12.368,0.176-19.085C291.652,79.174,276.9,74.584,276.9,74.584z"/>
					<path style="fill:#D3826F;" d="M269.152,130.533c0,0-0.391,3.033-3.807,3.889c-5.242,1.314-9.302-3.009-9.204-4.378
						C258.912,130.806,264.492,133.883,269.152,130.533z"/>
					<path style="fill:#D3826F;" d="M256.822,152.194c-0.199-0.239,5.837,2.335,10.039,0
						C265.305,154.685,260.635,156.786,256.822,152.194z"/>
					<path d="M221.375,109.537c0,0-3.976,6.376-2.221,20.984c-1.281-1.734-2.643-14.871-2.254-17.291
						C217.289,110.81,221.375,109.537,221.375,109.537z"/>
					<g>
						<g>
							<path style="fill:#FFFFFF;" d="M269.826,115.096c0,0,1.045-4.766,6.788-6.332c5.743-1.566,10.005,2.361,10.005,2.361
								c-1.975,0.374-2.801,2.975-8.397,4.924C272.625,118,269.826,115.096,269.826,115.096z"/>
							<g>
								<defs>
									<path id="SVGID_00000005958299353605506810000002499359220458097846_" d="M269.826,115.096c0,0,1.045-4.766,6.788-6.332
										c5.743-1.566,10.005,2.361,10.005,2.361c-1.975,0.374-2.801,2.975-8.397,4.924
										C272.625,118,269.826,115.096,269.826,115.096z"/>
								</defs>
								<clipPath id="SVGID_00000072961707252733436200000011517579763201034666_">
									<use xlink:href="#SVGID_00000005958299353605506810000002499359220458097846_"  style="overflow:visible;"/>
								</clipPath>
								<g style="clip-path:url(#SVGID_00000072961707252733436200000011517579763201034666_);">
									<path style="fill:#1E0B00;" d="M279.639,110.324c1.002,1.708,0.429,3.906-1.279,4.908
										c-1.708,1.002-3.905,0.429-4.908-1.279c-1.002-1.708-0.429-3.906,1.279-4.907
										C276.44,108.043,278.637,108.616,279.639,110.324z"/>
									<g>
										<path style="fill:#040100;" d="M278.032,111.267c0.481,0.821,0.206,1.876-0.614,2.357
											c-0.821,0.481-1.876,0.206-2.357-0.615c-0.481-0.821-0.206-1.876,0.615-2.357
											C276.495,110.171,277.551,110.446,278.032,111.267z"/>
										<path style="fill:#FFFFFF;" d="M278.13,110.334c0.211,0.36,0.09,0.822-0.269,1.033c-0.36,0.211-0.822,0.09-1.033-0.269
											c-0.211-0.36-0.09-0.822,0.269-1.033C277.457,109.854,277.919,109.974,278.13,110.334z"/>
									</g>
								</g>
							</g>
						</g>
						<path style="fill:#210900;" d="M269.826,115.096c0.398-1.769,1.385-3.443,2.789-4.689c1.379-1.289,3.195-2.064,5.035-2.407
							c1.842-0.331,3.798-0.196,5.557,0.47c1.751,0.67,3.295,1.869,4.251,3.417c-1.283-1.276-2.876-2.128-4.52-2.617
							c-1.661-0.449-3.407-0.526-5.102-0.205c-1.686,0.299-3.315,0.937-4.683,1.989C271.78,112.092,270.618,113.474,269.826,115.096
							z"/>
						<path style="fill:#89493F;" d="M269.489,113.23c0.219-1.808,1.174-3.505,2.517-4.771c1.362-1.274,3.132-2.023,4.931-2.391
							c1.808-0.36,3.717-0.302,5.475,0.282c1.724,0.615,3.373,1.632,4.381,3.158c-0.571-0.701-1.301-1.247-2.069-1.698
							c-0.764-0.461-1.585-0.817-2.436-1.063c-0.857-0.224-1.73-0.367-2.613-0.405c-0.882,0.005-1.77,0.051-2.633,0.256
							c-0.874,0.145-1.716,0.43-2.53,0.768c-0.794,0.379-1.558,0.828-2.231,1.402C270.948,109.914,269.927,111.474,269.489,113.23z"
							/>
					</g>
					<g>
						<g>
							<path style="fill:#FFFFFF;" d="M250.557,114.918c0,0-1.045-4.766-6.788-6.332c-5.743-1.566-10.005,2.361-10.005,2.361
								c1.975,0.374,2.801,2.975,8.397,4.924C247.757,117.822,250.557,114.918,250.557,114.918z"/>
							<g>
								<defs>
									<path id="SVGID_00000173866778743725965350000005509996387817204109_" d="M250.557,114.918c0,0-1.045-4.766-6.788-6.332
										c-5.743-1.566-10.005,2.361-10.005,2.361c1.975,0.374,2.801,2.975,8.397,4.924
										C247.757,117.822,250.557,114.918,250.557,114.918z"/>
								</defs>
								<clipPath id="SVGID_00000065070289935065143150000005708389903309552798_">
									<use xlink:href="#SVGID_00000173866778743725965350000005509996387817204109_"  style="overflow:visible;"/>
								</clipPath>
								<g style="clip-path:url(#SVGID_00000065070289935065143150000005708389903309552798_);">
									<path style="fill:#1E0B00;" d="M238.648,109.991c-1.002,1.708-0.429,3.905,1.279,4.907
										c1.709,1.002,3.906,0.429,4.908-1.279c1.002-1.708,0.429-3.905-1.279-4.907
										C241.847,107.709,239.65,108.282,238.648,109.991z"/>
									<g>
										<path style="fill:#040100;" d="M240.256,110.933c-0.481,0.821-0.206,1.876,0.614,2.357
											c0.821,0.481,1.876,0.206,2.357-0.615c0.481-0.821,0.206-1.876-0.615-2.357
											C241.792,109.837,240.737,110.113,240.256,110.933z"/>
										<path style="fill:#FFFFFF;" d="M240.158,110.001c-0.211,0.36-0.09,0.822,0.269,1.033c0.36,0.211,0.822,0.09,1.033-0.269
											c0.211-0.359,0.09-0.822-0.269-1.033C240.831,109.52,240.368,109.641,240.158,110.001z"/>
									</g>
								</g>
							</g>
						</g>
						<path style="fill:#210900;" d="M250.557,114.918c-0.397-1.769-1.385-3.443-2.789-4.689c-1.379-1.289-3.195-2.064-5.035-2.407
							c-1.842-0.331-3.798-0.196-5.556,0.47c-1.751,0.67-3.295,1.869-4.251,3.417c1.283-1.276,2.876-2.128,4.52-2.617
							c1.66-0.449,3.407-0.526,5.102-0.205c1.686,0.299,3.315,0.937,4.683,1.989C248.603,111.914,249.765,113.296,250.557,114.918z"
							/>
						<path style="fill:#D3826F;" d="M233.846,111.277c0,0,0.022,2.957,2.979,6.381c2.957,3.424,11.011,4.163,13.813-1.985
							c-3.113,3.035-6.162,4.049-10.941,2.18C234.919,115.985,233.846,111.277,233.846,111.277z"/>
						<path style="fill:#D3826F;" d="M269.826,115.507c0,0,1.054,5.526,8.315,5.118c7.261-0.409,9.013-8.789,9.013-8.789
							s-2.733,6.688-9.013,7.155C271.861,119.457,269.826,115.507,269.826,115.507z"/>
						<path style="fill:#89493F;" d="M250.894,113.052c-0.219-1.807-1.174-3.505-2.517-4.771c-1.362-1.274-3.132-2.023-4.932-2.391
							c-1.807-0.36-3.717-0.302-5.474,0.282c-1.724,0.615-3.373,1.632-4.381,3.158c0.571-0.701,1.301-1.247,2.069-1.698
							c0.764-0.461,1.585-0.817,2.436-1.063c0.857-0.224,1.73-0.367,2.613-0.405c0.882,0.005,1.769,0.051,2.633,0.256
							c0.874,0.145,1.716,0.43,2.53,0.768c0.794,0.379,1.559,0.828,2.231,1.402C249.435,109.736,250.456,111.297,250.894,113.052z"
							/>
					</g>
					<path style="fill:#210900;" d="M248.689,101.588c0,0-4.552-1.634-10.155-1.634c-5.603,0-10.195,4.202-10.195,4.202
						c5.136-6.226,8.638-6.848,12.918-7.082c4.28-0.233,7.86,0.7,8.949,1.479C251.296,99.331,251.296,101.433,248.689,101.588z"/>
					<path style="fill:#210900;" d="M270.467,101.588c0,0,4.552-1.634,10.155-1.634c5.603,0,10.195,4.202,10.195,4.202
						c-5.136-6.226-8.638-6.848-12.918-7.082c-4.28-0.233-7.86,0.7-8.949,1.479C267.859,99.331,267.86,101.433,270.467,101.588z"/>
					<path style="fill:#DBA194;" d="M262.279,111.082c1.075,0.201,2.998,7.247,3.266,10.7c0.349,4.509,0.83,6.892,0.83,6.892
						c0.663-0.423,0.915-2.727,0.67-5.261C266.8,120.879,266.235,111.821,262.279,111.082z"/>
					<g>
						<path style="fill:#4B2E26;" d="M275.59,137.173c0,0-11.443,2.409-29.01,0c5.22,9.938,10.439,11.443,15.458,12.246
							C267.057,150.222,275.891,146.207,275.59,137.173z"/>
						<path style="fill:#FFFFFF;" d="M274.713,137.331c-0.476,1.584-2.264,4.599-8.994,4.894
							c-8.858,0.388-15.081,0.819-17.847-4.884C261.917,139.111,271.819,137.811,274.713,137.331z"/>
						<path style="fill:#F2F2F2;" d="M274.204,138.468c0.245-0.415,0.41-0.808,0.509-1.137c-2.894,0.48-12.796,1.779-26.84,0.01
							c0.199,0.411,0.418,0.786,0.655,1.132C261.512,140.034,270.844,138.984,274.204,138.468z"/>
						<path style="fill:#AD5147;" d="M246.58,137.173c0,0,11.42-0.752,13.194-0.837c1.774-0.085,4.309,0.465,4.858,1.225
							c1.859-1.648,7.848-1.833,10.957-0.388C270.969,138.617,256.282,139.573,246.58,137.173z"/>
						<path style="fill:#AD5147;" d="M246.58,137.173c0,0,0.572,6.214,6.963,11.118c6.391,4.905,14.68,3.253,18.778-0.845
							c4.098-4.098,3.269-10.273,3.269-10.273s-3.338,11.653-13.181,11.484C252.566,148.488,246.58,137.173,246.58,137.173z"/>
					</g>
					<g>
						<path style="opacity:0.29;fill:#FFFFFF;" d="M227.415,106.009c0,0,15.762-0.688,28.342,1.612
							c1.559,1.266,0.48,13.498-6.596,15.896c-7.075,2.398-15.41,1.017-19.068-1.319
							C226.436,119.863,227.415,106.009,227.415,106.009z"/>
						<path style="opacity:0.29;fill:#FFFFFF;" d="M255.826,114.641c0.816-3.329,0.674-6.417-0.068-7.02
							c-7.18-1.313-15.391-1.652-21.122-1.701c0.311,3.203,1.027,6.272,2.58,7.264C240.794,115.47,248.851,116.832,255.826,114.641z
							"/>
						<path d="M241.132,125.242c-4.569,0-8.842-1.071-11.297-2.638c-3.789-2.42-3.002-15.181-2.899-16.628l0.03-0.427l0.427-0.019
							c0.159-0.008,15.96-0.664,28.449,1.62l0.121,0.022l0.095,0.077c0.973,0.79,0.943,3.786,0.503,6.235
							c-0.36,2.006-1.946,8.691-7.247,10.488C246.699,124.859,243.863,125.242,241.132,125.242z M227.865,106.473
							c-0.24,4.064-0.215,13.596,2.487,15.322c3.735,2.386,11.931,3.548,18.655,1.269c4.804-1.629,6.275-7.874,6.612-9.749
							c0.53-2.957,0.213-4.804-0.1-5.249C244.312,106.043,230.465,106.388,227.865,106.473z"/>
					</g>
					<g>
						<path style="opacity:0.29;fill:#FFFFFF;" d="M296.898,106.009c0,0-15.762-0.688-28.342,1.612
							c-1.559,1.266-0.48,13.498,6.596,15.896c7.075,2.398,15.41,1.017,19.068-1.319
							C297.877,119.863,296.898,106.009,296.898,106.009z"/>
						<path style="opacity:0.29;fill:#FFFFFF;" d="M296.87,114.118c0.312-4.079,0.028-8.108,0.028-8.108s-11.106-0.484-22.113,0.721
							c1.064,3.157,3.028,6.214,6.203,7.29C286.443,115.869,292.639,115.467,296.87,114.118z"/>
						<path d="M283.181,125.242c-2.731,0-5.566-0.382-8.183-1.27c-5.302-1.797-6.888-8.482-7.247-10.488
							c-0.44-2.449-0.469-5.445,0.504-6.235l0.095-0.077l0.121-0.022c12.488-2.284,28.291-1.628,28.449-1.62l0.427,0.019l0.03,0.427
							c0.103,1.447,0.89,14.208-2.899,16.628C292.022,124.171,287.749,125.242,283.181,125.242z M268.794,108.066
							c-0.313,0.445-0.63,2.292-0.1,5.249c0.337,1.875,1.808,8.12,6.612,9.749c6.724,2.279,14.92,1.117,18.655-1.269
							c2.703-1.726,2.727-11.258,2.486-15.322C293.848,106.386,280,106.042,268.794,108.066z"/>
					</g>
					<path style="fill:#C46A5C;" d="M266.174,112.563c0.708,1.233,1.188,2.577,1.55,3.932c0.732,2.716,1.106,5.705,1.333,8.476
						c0.109,1.387,0.161,2.569,0.221,3.956c0.012,0.357,0.051,0.657,0.017,1.119c-0.105,1.437-1.264,2.323-2.581,2.63
						c-1.533,0.331-2.978,0.145-4.378-0.089c-1.404-0.246-4.47-1.507-4.375-1.762c0.089-0.238,5.516,1.502,8.443,0.508
						c1.312-0.245,1.544-1.614,1.523-2.366c-0.015-1.376-0.057-2.75-0.12-4.122c-0.15-2.739-0.377-5.479-0.921-8.146
						c-0.275-1.333-0.681-2.631-1.25-3.852C265.066,111.626,265.477,111.327,266.174,112.563z"/>
					<path style="fill:#4B2E26;" d="M235.092,130.594c0,0.536-0.434,0.97-0.97,0.97s-0.97-0.434-0.97-0.97
						c0-0.536,0.434-0.97,0.97-0.97S235.092,130.058,235.092,130.594z"/>
					<g>
						<path d="M255.764,108.104c-0.061,0-0.117-0.011-0.18-0.035l0.346-0.895l-0.173,0.447l-0.042-0.474
							c0.043-0.008,0.115-0.031,0.218-0.062c3.465-1.033,7.747-1.012,12.724,0.067l-0.203,0.937
							c-4.815-1.043-8.936-1.073-12.246-0.085C256.003,108.066,255.877,108.104,255.764,108.104z"/>
					</g>
				</g>
				<g>
					<path style="fill:#FFC112;" d="M266.97,176.253c0,0,9.813,23.443-12.491,25.791c-15.065,1.565-30.054-10.312-28.824-24.174
						c-5.725,4.472-8.254,9.53-11.836,17.539c-3.583,8.008,2.845,38.04,11.381,58.272c8.535,20.232,25.762,68.833,37.539,72.826
						c11.777,3.992,15.24-32.994,22.676-56.704c7.436-23.709,1.197-82.529,1.197-82.529S272.854,185.16,266.97,176.253z"/>
					<g>
						<path style="fill:#FFFFFF;" d="M221.21,183.017c0,0-20.653,15.131-44.679,21.453c-24.025,6.323-27.397,10.537-27.397,10.537
							s16.439,51.423,20.653,83.878c4.215,32.455,19.389,55.638,10.537,94.837c-8.851,39.199-19.6,92.308-20.864,112.54
							c-1.265,20.232,38.567,18.967,69.547,19.6c30.98,0.632,42.993-14.542,49.947-30.348c6.955-15.806-7.587-123.92-6.955-137.83
							c0.632-13.91-8.321-58.799-26.605-88.515C227.111,239.454,219.103,198.655,221.21,183.017z"/>
						<path style="fill:#F0F6F7;" d="M208.76,399.413c8.852-39.199-30.755-88.206-33.728-120.799
							c-4.9-53.734-25.898-63.607-25.898-63.607s16.438,51.423,20.654,83.878c4.215,32.455,19.389,55.638,10.537,94.837
							c-8.851,39.199-19.6,92.308-20.864,112.54c-0.779,12.469,14.054,16.772,32.802,18.387
							C193.528,504.418,199.909,438.612,208.76,399.413z"/>
						<path style="fill:#F0F6F7;" d="M170.51,438.718l-2.293,12.334c0,0,6.191-2.85,11.46,1.786
							c5.269,4.637,20.232,4.426,26.712,2.371c6.481-2.055,31.138-22.445,31.138-22.445s-7.271,5.216-18.493,3.793
							c-11.222-1.423-33.825-15.964-33.825-15.964L170.51,438.718z"/>
						<path style="fill:#DFEEEF;" d="M179.677,452.838c0,0,55.48-18.651,57.851-20.074
							C230.889,443.986,187.738,458.686,179.677,452.838z"/>
						<path style="fill:#F0F6F7;" d="M274.53,183.017c0,0,8.852,41.541,0,78.705c-8.852,37.164-17.703,95.963-16.438,132.001
							c1.264,36.038,2.529,99.263,4.426,108.114c1.897,8.852,29.716,24.658,58.167,18.968c28.451-5.69,29.083-17.703,29.083-17.703
							s-13.91-68.915-30.98-120.127c-17.071-51.212,1.265-69.547,7.587-107.482c6.322-37.935,0.632-71.444,0.632-71.444
							S284.435,185.589,274.53,183.017z"/>
						<path style="fill:#FFFFFF;" d="M274.53,183.017c0,0,8.852,41.541,0,78.705c-8.852,37.164-15.129,94.277-13.865,130.315
							c1.264,36.038,6.473,98.209,8.37,107.061c1.897,8.852,23.198,27.397,51.649,21.707c28.451-5.69,29.083-17.703,29.083-17.703
							s-13.91-68.915-30.98-120.127c-17.071-51.212,1.265-69.547,7.587-107.482c6.322-37.935,0.632-71.444,0.632-71.444
							S284.435,185.589,274.53,183.017z"/>
						<path style="fill:#DFEEEF;" d="M274.516,333.113c0,2.486-2.015,4.501-4.501,4.501c-2.486,0-4.501-2.015-4.501-4.501
							c0-2.486,2.015-4.501,4.501-4.501C272.501,328.612,274.516,330.627,274.516,333.113z"/>
						<circle style="fill:#DFEEEF;" cx="267.315" cy="408.036" r="4.501"/>
						<path style="fill:#DFEEEF;" d="M276.318,482.31c0,2.486-2.015,4.501-4.501,4.501c-2.486,0-4.501-2.015-4.501-4.501
							c0-2.486,2.015-4.501,4.501-4.501C274.302,477.809,276.318,479.824,276.318,482.31z"/>
						<path style="fill:#F0F6F7;" d="M318.787,382.974c-17.071-51.212,1.264-69.547,7.587-107.482
							c-6.322,37.935-46.981,64.215-22.505,112.329c24.722,48.598,33.091,111.548,34.848,127.077
							c10.724-5.6,11.051-11.797,11.051-11.797S335.858,434.186,318.787,382.974z"/>
						<path style="fill:#DFEEEF;" d="M285.398,430.077c0,0,13.166,15.52,52.669,21.354
							C307.707,440.193,285.398,430.077,285.398,430.077z"/>
						<g>
							<path style="fill:#DFEEEF;" d="M226.819,175.518c0,0-7.627,24.104,5.651,61.723c13.277,37.619,36.68,69.349,30.013,97.117
								c-3.03-18.322-16.449-38.509-36.681-53.051c-20.232-14.542-28.697-37.334-28.697-37.334l23.984-15.9l-26.133-3.688
								c0,0,12.704-28.184,15.701-33.931C216.043,180.128,226.819,175.518,226.819,175.518z"/>
							<path style="fill:#F0F6F7;" d="M226.819,175.518c0,0-7.627,24.104,5.651,61.723c13.277,37.619,35.949,58.265,31.184,88.593
								c-5.683-16.159-17.906-33.588-38.138-48.13c-20.232-14.542-27.081-44.784-27.081-44.784l22.656-4.847l-25.395-9.301
								c0,0,11.966-22.571,14.963-28.318C216.043,180.128,226.819,175.518,226.819,175.518z"/>
							<path style="fill:#DFEEEF;" d="M266.97,176.253c0,0,11.417,23.124,10.232,50.715c-1.185,27.591-3.952,37.935-7.587,50.896
								c-3.635,12.961-6.395,31.165-8.949,65.602c6.578-40.786,30.893-55.384,40.153-79.992c7.903-21.003,9.313-28.555,9.313-28.555
								l-18.757-9.796l13.91-4.636l-14.963-29.716C290.32,190.771,277.043,177.869,266.97,176.253z"/>
							<path style="fill:#F0F6F7;" d="M266.97,176.253c0,0,11.417,23.124,10.232,50.715c-1.185,27.591-3.952,37.935-7.587,50.896
								c-3.635,12.961-6.395,31.165-8.949,65.602c6.578-40.786,29.247-57.136,38.507-81.744c7.903-21.003,9.484-37.441,9.484-37.441
								l-17.282,0.843l14.121-10.748l-15.174-23.604C290.32,190.771,277.043,177.869,266.97,176.253z"/>
						</g>
					</g>
				</g>
				<path style="fill:#F0F6F7;" d="M329.203,213.532c0,0-10.307,16.944-8.751,39.523c1.555,22.579,0.532,59.424-8.003,82.501
					c16.122-32.561,16.439-49.631,14.226-64.489C324.462,256.209,320.352,234.712,329.203,213.532z"/>
				<g>
					<path style="fill:#FFFFFF;" d="M327.127,204.049c0,0,10.748,5.058,13.277,21.496c2.529,16.438,4.47,22.445,11.876,35.722
						c7.407,13.277,9.062,27.081,15.174,57.005c-15.385,19.81-40.328,10.33-40.328,10.33s-0.211-30.98-4.531-49.948
						C318.275,259.686,320.804,209.739,327.127,204.049z"/>
					<path style="fill:#F0F6F7;" d="M324.308,210.198c0,0-5.676,44.296,0,75.535c-0.069,16.031-2.523,23.17-2.523,23.17
						S310.521,244.688,324.308,210.198z"/>
					<g>
						<path style="fill:#C6E2E5;" d="M329.768,354.516c0,0-4.11,19.758-4.246,25.922c-0.136,6.164,7.11,9.826,14.034,9.089
							c6.924-0.737,11.278-9.037,12.7-17.677c1.423-8.64-0.766-31.717-7.654-34.088c-6.888-2.371-9.748,8.229-9.978,9.726
							C334.396,348.984,329.768,354.516,329.768,354.516z"/>
						<path style="fill:#CB7663;" d="M325.094,376.652c0,0,10.132,6.002,24.674-12.333c14.542-18.335-9.605-24.548-9.605-24.548
							l-10.187,11.723L325.094,376.652z"/>
						<path style="fill:#FFC112;" d="M337.423,349.992c0,0,5.963,19.333-4.651,27.144c-1.261,0.262-3.343,0.432-3.343,0.432
							s2.816,1.508,8.626,0.981c5.81-0.527,7.903-6.428,9.273-11.17C348.698,362.637,345.747,349.465,337.423,349.992z"/>
						<path style="fill:#FFFFFF;" d="M336.083,348.984c0,0,8.059,8.318,7.325,26.221c-0.121,2.945-5.038,15.296-8.199,14.242
							c7.978,2.529,14.362-1.686,18.998-9.062c4.636-7.376,6.795-11.38,12.434-18.757c5.639-7.376,5.639-11.38,5.639-21.918
							c0-10.537-4.406-15.117-4.827-21.44c-0.422-6.322-32.769,2.013-33.482,9.59C333.259,335.439,329.55,344.348,336.083,348.984z"
							/>
						<path style="fill:#F0F6F7;" d="M332.279,337.417c1.666,0.878,20.945-2.253,24.341,15.694
							c3.879,2.045,4.933-5.542,2.193-11.443c-2.74-5.901-16.481-8.219-16.481-8.219c15.217-2.107,21.329-1.264,25.122,4.847
							c-4.215-12.434-20.684-13.488-26.976-9.694c7.798-15.385,20.443-14.12,20.443-14.12c-5.269-4.215-21.738,1.402-27.413,9.763
							C327.834,332.605,332.279,337.417,332.279,337.417z"/>
						<g>
							<g>
								<g>
									<polygon style="fill:#E59E00;" points="320.014,397.516 297.368,439.244 329.656,281.183 351.152,250.203 									"/>
									<polygon style="fill:#FFC112;" points="288.876,436.715 322.596,278.654 345.357,248.306 351.152,250.203 329.656,281.183 
										297.368,439.244 									"/>
								</g>
							</g>
							<path style="fill:#D3826F;" d="M337.137,365.061c0,0,2.261-7.745-0.268-17.65c-2.529-9.905-0.048-9.326-2.683-15.016
								c-2.634-5.69,0.948-11.275-0.527-13.383c-1.475-2.108-7.376,0.316-8.324,6.849c-0.948,6.533,1.897,6.323,1.054,11.17
								c-0.843,4.847-1.686,7.692-3.161,8.957c-1.475,1.264-14.505-1.484-14.505-1.484l0.766-4.411c0,0-3.858-1.06-6.598,2.839
								c-2.74,3.899-1.37,9.168-1.37,9.168c-4.109,1.37-3.899,7.587-2.213,9.378c-3.477,4.742-1.134,9.905-1.134,9.905
								c-1.711,2.95-0.447,7.798,1.45,9.589c1.897,1.791,14.963,4.426,19.178,3.583c4.215-0.843,4.742-3.583,6.533-6.849
								c1.791-3.267,3.477-3.477,6.217-6.744C334.292,367.695,335.872,369.586,337.137,365.061z"/>
							<path style="fill:#DB907B;" d="M337.137,365.061c0,0,2.261-7.745-0.268-17.65c-2.529-9.905-0.048-9.326-2.683-15.016
								c-2.634-5.69,0.948-11.275-0.527-13.383c-1.475-2.108-7.376,0.316-8.324,6.849c-0.948,6.533,4.711,7.139,3.868,11.986
								c-0.843,4.847-1.449,7.271-2.924,8.535c-1.475,1.265-17.556-1.879-17.556-1.879l0.766-4.411c0,0-3.858-1.06-6.598,2.839
								c-2.74,3.899-1.37,9.168-1.37,9.168c-4.109,1.37-3.899,7.587-2.213,9.378c-3.477,4.742-1.134,9.905-1.134,9.905
								c-1.711,2.95-0.447,7.798,1.45,9.589c1.897,1.791,14.963,4.426,19.178,3.583c4.215-0.843,4.742-3.583,6.533-6.849
								c1.791-3.267,3.477-3.477,6.217-6.744C334.292,367.695,335.872,369.586,337.137,365.061z"/>
							<path style="fill:#D3826F;" d="M301.521,352.1c0,0,2.314,4.162,8.32,5.822c6.006,1.66,9.361,0.711,10.173,1.976
								c0.812,1.264-0.373,0.869-4.404,0.553C311.579,360.134,302.921,358.29,301.521,352.1z"/>
							<path style="fill:#D3826F;" d="M299.308,361.478c0,0,2.472,3.082,8.162,4.979c5.69,1.897,9.642,0.316,10.274,1.897
								c0.632,1.581-5.058,1.106-9.721-0.395C303.36,366.457,299.049,362.743,299.308,361.478z"/>
							<path style="fill:#D3826F;" d="M298.174,371.383c0,0,2.42,2.345,7.478,3.53c5.058,1.185,8.298-0.316,9.009,0.711
								c0.711,1.027-0.869,1.976-6.006,1.264C303.518,376.178,298.846,373.957,298.174,371.383z"/>
						</g>
					</g>
				</g>
				<path style="fill:#DB907B;" d="M191.374,406.368c0,0,5.69,11.38,16.755,16.122c11.064,4.742,18.019,13.277,23.709,23.077
					c5.69,9.8-38.567,13.593-38.567,13.593l-18.967-27.819L191.374,406.368z"/>
				<g>
					<g>
						<g>
							<path style="fill:#D3826F;" d="M201.557,418.545c-6.738-5.291-10.184-12.178-10.184-12.178l-17.071,24.974l18.967,27.819
								c0,0,0.039-0.003,0.105-0.009c-0.823-1.541-1.599-3.115-2.318-4.733C184.982,442.267,189.42,425.451,201.557,418.545z"/>
							<path style="fill:#FFC112;" d="M195.694,408.791l6.112,7.587c0,0-8.434,2.144-14.963,12.961s-4.67,13.544-4.67,13.544
								l-8.713-7.222C173.46,435.662,170.984,415.377,195.694,408.791z"/>
						</g>
						<path style="fill:#FFFFFF;" d="M149.134,215.007c0,0-39.637,96.155-41.533,136.487c-1.897,40.332,20.864,56.77,29.083,66.254
							c8.219,9.484,35.406,25.922,35.406,25.922c5.479-27.397,27.187-34.141,27.187-34.141s-27.187-32.588-37.935-46.01
							s3.557-33.252,9.681-56.846C177.148,283.079,161.584,213.954,149.134,215.007z"/>
						<path style="fill:#F0F6F7;" d="M129.94,355.577c-0.547,0.317,18.967-4.137,31.402,7.942
							C157.478,352.847,144.482,347.147,129.94,355.577z"/>
						<path style="fill:#F0F6F7;" d="M151.518,408.338c-8.219-9.484-30.98-25.922-29.083-66.254
							c1.4-29.773,23.364-89.96,34.77-119.436c-2.673-4.947-5.441-7.863-8.07-7.641c0,0-39.637,96.155-41.533,136.487
							c-1.897,40.332,20.864,56.77,29.083,66.254c8.219,9.484,35.406,25.922,35.406,25.922c1.208-6.038,3.205-11.071,5.583-15.252
							C168.995,422.767,156.613,414.217,151.518,408.338z"/>
					</g>
					<path style="fill:#FFFFFF;" d="M179.677,452.838c0,0,36.643-1.245,57.851-20.074c5.69,12.803,6.006,16.28,6.006,16.28
						s-33.825,20.864-60.063,18.967C181.89,462.005,179.677,452.838,179.677,452.838z"/>
				</g>
				<g>
					<path style="fill:#210900;" d="M298.874,97.132c-0.353-6.324-1.363-12.541-4.256-18.853
						c-4.527-9.878-12.826-16.524-22.532-21.017c-9.896-4.581-36.089-9.003-42.867,3.627c-18.219-3.503-26.408,12.9-30.728,27.717
						c-2.716,9.314-4.279,18.954-7.352,28.16c-3.144,9.417-7.583,18.353-10.478,27.859c-0.249,0.818-3.119,13.721-2.097,13.594
						c0.499-0.062,42.652,8.217,45.782-44.216c0.617-10.333,2.063-22.892,11.474-29.47c7.135-4.986,17.588-2.214,25.309,1.295
						c7.365-3.822,16.876-6.059,23.213,0.761c9.338,10.049,5.399,26.66,7.833,39.04c1.262,6.417,4.887,11.15,10.097,14.795
						c-1.912-7.998-2.832-16.219-3.111-24.43C298.94,109.483,299.216,103.258,298.874,97.132z"/>
					<path style="fill:#210900;" d="M303.139,141.007c0.118,0.113,0.243,0.205,0.383,0.254
						C303.392,141.178,303.267,141.091,303.139,141.007z"/>
					<path style="fill:#210900;" d="M302.995,140.855l-0.009,0.051c0.051,0.034,0.102,0.068,0.153,0.101
						C303.09,140.96,303.04,140.913,302.995,140.855z"/>
				</g>
				<path style="fill:#360D00;" d="M243.13,63.913c0,0-17.348,0.652-18.652,56.217c-1.076,45.854-46.435,42-45.913,38.087
					c0,0,31.301,1.257,36.522-32.609C216.977,113.347,213.391,63.913,243.13,63.913z"/>
				<g>
					<path style="fill:#360D00;" d="M294.619,78.278c-4.527-9.878-12.826-16.524-22.532-21.017
						c-9.896-4.581-36.089-9.003-42.866,3.627C272.478,46.696,297.512,84.591,294.619,78.278z"/>
				</g>
				<path style="fill:#360D00;" d="M219.652,69.783c-3.172,3.023-5.661,6.717-7.415,10.715c-1.767,4.001-2.845,8.271-3.532,12.579
					c-1.369,8.644-1.232,17.42-1.516,26.164c-0.158,4.367-0.281,8.774-1.159,13.105c-0.85,4.319-2.609,8.533-5.399,11.996
					c-2.748,3.486-6.26,6.294-10.019,8.586c-3.769,2.299-7.794,4.116-11.863,5.755c-0.256,0.103-0.548-0.021-0.651-0.277
					c-0.103-0.256,0.021-0.548,0.277-0.651l0.005-0.002c4.057-1.589,8.052-3.349,11.779-5.574c3.718-2.219,7.174-4.932,9.885-8.304
					c2.745-3.343,4.493-7.412,5.373-11.655c0.905-4.251,1.073-8.634,1.272-12.997c0.367-8.724,0.313-17.526,1.769-26.185
					c0.731-4.316,1.854-8.593,3.665-12.59C213.921,76.453,216.452,72.775,219.652,69.783z"/>
			</g>
			<g>
				<g>
					<g>
						<path style="fill:#07003D;" d="M205.735,202.657c-4.539,17.431,1.2,33.382,7.413,46.687
							c13.863,29.688,11.454,41.568,9.859,49.43c-0.107,0.529-0.21,1.039-0.305,1.533c-0.105,0.551,0.256,1.081,0.807,1.186
							c0.064,0.012,0.128,0.018,0.191,0.018c0.477,0,0.902-0.339,0.995-0.824c0.093-0.487,0.195-0.989,0.3-1.51
							c1.648-8.123,4.137-20.396-10.009-50.69c-6.06-12.978-11.665-28.511-7.288-45.319c4.451-17.091,14.478-25.672,19.695-29.117
							l0.917-2.961C223.816,173.562,211.067,182.181,205.735,202.657z"/>
					</g>
					<g>
						<path style="fill:#07003D;" d="M226.524,376.232c-0.549,0-1-0.438-1.013-0.989c-0.013-0.56,0.429-1.025,0.989-1.039
							c3.389-0.082,6.282-0.83,6.508-1.418c0.308-1.914,2.021-43.45,1.675-52.786c-0.268-7.235-2.152-16.258-9.607-18.164
							c-2.708-0.691-5.389-0.272-7.753,1.214c-3.47,2.18-5.987,6.398-7.088,11.874c-2.244,11.156-4.901,53.652-3.89,56.361
							c0.72,1.133,4.41,2.01,6.788,2.248c0.557,0.055,0.963,0.552,0.908,1.11c-0.056,0.557-0.546,0.957-1.11,0.908
							c-1.121-0.112-6.79-0.796-8.34-3.257c-1.757-2.792,1.82-48.639,3.655-57.769c1.212-6.027,4.052-10.712,7.997-13.191
							c2.847-1.789,6.076-2.294,9.334-1.461c6.861,1.753,10.711,8.688,11.132,20.053c0.348,9.39-1.389,51.25-1.702,53.192
							c-0.427,2.641-6.059,3.057-8.46,3.115C226.54,376.232,226.532,376.232,226.524,376.232z"/>
					</g>
					<path style="fill:#66657A;" d="M210.137,373.57c0,0,0.19-0.919,0.951-0.824c0.76,0.095,2.915,0.285,3.39,0.824
						c0.475,0.539,0,2.497-0.38,2.769s-2.82-0.361-3.549-0.456S209.916,374.362,210.137,373.57z"/>
					<path style="fill:#66657A;" d="M229.614,374.207c0,0-0.116-0.758-0.877-0.662c-0.76,0.095-2.989,0.124-3.464,0.662
						c-0.475,0.539,0.006,2.393,0.387,2.665c0.38,0.272,2.813-0.257,3.542-0.352C229.931,376.425,229.836,375,229.614,374.207z"/>
					<g>
						<path style="fill:#66657A;" d="M225.703,299.381c-3.397-0.869-6.761-0.342-9.729,1.523c-4.064,2.554-6.985,7.356-8.224,13.521
							c-0.128,0.635-0.271,1.54-0.425,2.626l3.022,0.197c0.129-0.839,0.258-1.594,0.385-2.223c1.073-5.339,3.509-9.439,6.86-11.545
							c2.243-1.411,4.788-1.81,7.357-1.152c6.746,1.725,8.74,9.651,9.165,16.471l3.049,0.199
							C236.561,307.931,232.615,301.147,225.703,299.381z"/>
					</g>
				</g>
				<g>
					<g>
						<path style="fill:#07003D;" d="M299.431,224.53c-11.351-44.833-28.265-50.713-33.452-51.435l0.685,2.215
							c5.455,1.314,20.415,8.697,30.801,49.718c12.951,51.156,0.182,81.861,0.051,82.166l1.863,0.801
							C299.513,307.685,312.565,276.409,299.431,224.53z"/>
					</g>
					<circle style="fill:#66657A;" cx="298.428" cy="308.903" r="7.35"/>
					<path style="fill:#8C8C9B;" d="M302.736,308.903c0,2.38-1.929,4.309-4.309,4.309c-2.38,0-4.309-1.929-4.309-4.309
						s1.929-4.309,4.309-4.309C300.807,304.594,302.736,306.523,302.736,308.903z"/>
				</g>
			</g>
		</g>
	</g>
	<g>
		<defs>
			<rect id="SVGID_00000046337307739810123730000017172978363219029657_" width="500" height="500"/>
		</defs>
		<clipPath id="SVGID_00000127037592228946068450000015655017738542131880_">
			<use xlink:href="#SVGID_00000046337307739810123730000017172978363219029657_"  style="overflow:visible;"/>
		</clipPath>
		<g style="clip-path:url(#SVGID_00000127037592228946068450000015655017738542131880_);">
			<path style="fill:#0778A5;" d="M383.322,512.076c0,0,3.833-20.29-0.561-32.365c-4.395-12.075-9.144-40.915-7.174-54.932
				c-6.085,20.716-8.007,33.902-4.536,47.144C374.521,485.164,383.767,503.687,383.322,512.076z"/>
			<path style="fill:#0778A5;" d="M383.322,512.076c0,0,3.833-20.29-0.561-32.365c-4.395-12.075-9.144-40.915-7.174-54.932
				c-6.085,20.716-3.005,33.788,0.466,47.029C379.524,485.049,383.767,503.687,383.322,512.076z"/>
			<path style="fill:#0778A5;" d="M384.88,540.772c0,0,1.418-20.601-4.368-32.074c-5.786-11.473-13.898-39.554-13.592-53.706
				c-3.604,21.289-3.96,34.609,1.046,47.35C372.972,515.083,384.334,532.388,384.88,540.772z"/>
			<path style="fill:#0778A5;" d="M384.88,540.772c0,0,1.418-20.601-4.368-32.074c-5.786-11.473-13.898-39.554-13.592-53.706
				c-3.604,21.289,0.994,33.906,6,46.647C377.926,514.38,384.334,532.388,384.88,540.772z"/>
			<path style="fill:#0778A5;" d="M380.66,567.647c0,0,1.418-20.601-4.368-32.074c-5.786-11.473-13.898-39.554-13.592-53.706
				c-3.603,21.289-3.96,34.609,1.046,47.35C368.752,541.958,380.114,559.263,380.66,567.647z"/>
			<path style="fill:#0778A5;" d="M380.66,567.647c0,0,1.418-20.601-4.368-32.074c-5.786-11.473-13.898-39.554-13.592-53.706
				c-3.603,21.289,0.995,33.906,6,46.647C373.706,541.255,380.114,559.263,380.66,567.647z"/>
			<path style="fill:#0778A5;" d="M387.369,492.911c0,0,4.103-13.123,3.274-28.717c-0.829-15.594-6.357-25.486-7.373-34.538
				c-1.016-9.052,0.809-20.573,0.809-20.573s-6.744,15.475-4.775,35.76C381.274,465.128,388.182,483.323,387.369,492.911z"/>
			<path style="fill:#0778A5;" d="M387.369,492.911c0,0,4.103-13.123,3.274-28.717c-0.829-15.594-6.357-25.486-7.373-34.538
				c-1.016-9.052,0.809-20.573,0.809-20.573s-6.176,16.634-1.539,36.479C388.65,471.714,388.182,483.323,387.369,492.911z"/>
			<path style="fill:#0778A5;" d="M395.583,474.61c0,0,7.188-9.839,8.296-27.461c1.109-17.622-6.037-49.792-3.174-58.169
				c-5.656,10.014-8.729,30.841-6.697,48.945C396.041,456.029,395.583,474.61,395.583,474.61z"/>
			<path style="fill:#0778A5;" d="M395.583,474.61c0,0,7.188-9.839,8.296-27.461c1.109-17.622-6.037-49.792-3.174-58.169
				c-5.656,10.014-2.952,30.851-0.92,48.955C401.817,456.039,395.583,474.61,395.583,474.61z"/>
			<path style="fill:#0778A5;" d="M406.029,456.609c0,0,9.97-16.829,10.187-33.84c0.217-17.01,2.739-38.319,4.976-43.649
				c-6.874,8.851-15.82,30.172-14.564,42.836C407.883,434.619,409.525,448.397,406.029,456.609z"/>
			<path style="fill:#0778A5;" d="M406.029,456.609c0,0,9.97-16.829,10.187-33.84c0.217-17.01,2.739-38.319,4.976-43.649
				c-6.874,8.851-9.818,30.435-8.562,43.098C413.886,434.881,409.525,448.397,406.029,456.609z"/>
			<path style="fill:#0778A5;" d="M415.421,441.994c0,0,12.54-12.975,14.776-27.417c2.236-14.441,12.251-43.088,15.773-46.224
				c-11.077,12.654-21.563,29.517-23.058,39.773C421.417,418.382,421.243,434.498,415.421,441.994z"/>
			<path style="fill:#0778A5;" d="M415.421,441.994c0,0,12.54-12.975,14.776-27.417c2.236-14.441,12.251-43.088,15.773-46.224
				c-11.077,12.654-16.838,30.084-18.333,40.34C426.142,418.949,421.243,434.498,415.421,441.994z"/>
			<path style="fill:#0778A5;" d="M429.805,426.599c0,0,20.695-22.309,24.11-37.977c3.415-15.668,7.215-30.222,9.527-31.309
				c-7.754,9.635-16.294,26.162-21.559,40.502C436.617,412.156,429.805,426.599,429.805,426.599z"/>
			<path style="fill:#0778A5;" d="M429.805,426.599c0,0,20.695-22.309,24.11-37.977c3.415-15.668,7.215-30.222,9.527-31.309
				c-7.754,9.635-9.74,24.853-15.005,39.194C443.171,410.847,429.805,426.599,429.805,426.599z"/>
			<path style="fill:#0778A5;" d="M447.36,410.06c0,0,15.906-37.19,44.771-51.959c-13.356,13.185-19.576,21.475-23.645,28.861
				C464.417,394.349,454.726,404.548,447.36,410.06z"/>
			<path style="fill:#0778A5;" d="M447.36,410.06c0,0,23.363-35.295,44.771-51.959c-13.356,13.185-19.576,21.475-23.645,28.861
				C464.417,394.349,454.726,404.548,447.36,410.06z"/>
			<path style="fill:#0778A5;" d="M455.446,403.737c0,0,30.223-35.395,65.844-33.755
				C504.647,376.338,466.209,395.709,455.446,403.737z"/>
			<path style="fill:#0778A5;" d="M455.446,403.737c0,0,33.711-28.377,65.844-33.755
				C504.647,376.338,466.209,395.709,455.446,403.737z"/>
			<path style="fill:#0778A5;" d="M443.646,413.67c0,0,11.87-12.672,26.374-11.701c14.504,0.971,26.985,5.807,36.483,0.063
				c-15.226,9.993-28.199,9.197-38.397,8.562C457.908,409.959,448.978,411.677,443.646,413.67z"/>
			<path style="fill:#0778A5;" d="M443.646,413.67c0,0,12.473-8.479,26.977-7.509c14.504,0.971,26.382,1.614,35.88-4.13
				c-15.226,9.993-28.199,9.197-38.397,8.562C457.908,409.959,448.978,411.677,443.646,413.67z"/>
			<path style="fill:#0778A5;" d="M433.434,422.999c0,0,7.41-9.88,28.206-8.844c20.796,1.036,26.723,2.387,37.625-3.286
				c-12.227,9.129-22.531,11.057-35.714,10.206C450.367,420.224,441.62,420.648,433.434,422.999z"/>
			<path style="fill:#0778A5;" d="M433.434,422.999c0,0,8.226-6.525,29.022-5.489c20.796,1.036,25.907-0.968,36.809-6.641
				c-12.227,9.129-22.531,11.057-35.714,10.206C450.367,420.224,441.62,420.648,433.434,422.999z"/>
			<path style="fill:#0778A5;" d="M419.675,438.43c0,0,5.886-12.213,23.974-12.444c18.088-0.231,31.129,1.597,37.652-1.6
				c-8.327,6.219-19.419,7.716-33.777,7.91C433.167,432.49,423.473,435.486,419.675,438.43z"/>
			<path style="fill:#0778A5;" d="M419.675,438.43c0,0,6.15-9.825,24.238-10.056c18.088-0.231,30.865-0.791,37.389-3.988
				c-8.327,6.219-19.419,7.716-33.777,7.91C433.167,432.49,423.473,435.486,419.675,438.43z"/>
			<path style="fill:#0778A5;" d="M407.789,453.319c0,0,8.848-7.571,23.972-7.678c15.123-0.107,28.188-3.116,38.292-11.181
				c-5.733,2.108-12.117,3.713-24.374,3.834C433.422,438.415,416.185,439.342,407.789,453.319z"/>
			<path style="fill:#0778A5;" d="M407.789,453.319c0,0,8.848-7.571,23.972-7.678c15.123-0.107,28.188-3.116,38.292-11.181
				c-5.733,2.108-12.403,6.967-24.66,7.087C433.136,441.668,416.185,439.342,407.789,453.319z"/>
			<path style="fill:#0778A5;" d="M395.098,474.848c0,0,6.449-10.337,23.506-12.023c17.057-1.686,29.63-0.656,40.267-14.214
				c-9.654,5.478-20.549,5.787-31.179,5.941C417.062,454.706,400.095,459.898,395.098,474.848z"/>
			<path style="fill:#0778A5;" d="M395.098,474.848c0,0,6.449-10.337,23.506-12.023c17.057-1.686,29.63-0.656,40.267-14.214
				c-9.654,5.478-20.348,8.952-30.977,9.105C417.264,457.871,400.095,459.898,395.098,474.848z"/>
			<path style="fill:#0778A5;" d="M389.651,486.974c0,0,5.874-13.759,22.782-18.976c16.908-5.217,31.72-1.434,41.369-8.293
				c-7.63,9.16-21.989,11.41-32.689,12.587C410.413,473.469,392.793,480.443,389.651,486.974z"/>
			<path style="fill:#0778A5;" d="M389.651,486.974c0,0,5.395-11.655,22.304-16.872c16.908-5.217,32.541-1.143,41.847-10.397
				c-7.63,9.16-21.989,11.41-32.689,12.587C410.413,473.469,392.793,480.443,389.651,486.974z"/>
			<path style="fill:#0778A5;" d="M386.127,497.882c0,0,3.328-15.588,24.912-20.143c21.584-4.554,21.92,1.278,38.778-8.599
				c-12.474,13.472-23.939,13.343-37.45,15.438C398.855,486.673,390.804,491.901,386.127,497.882z"/>
			<path style="fill:#0778A5;" d="M386.127,497.882c0,0,2.676-12.555,24.26-17.11c21.584-4.555,22.572-1.755,39.43-11.632
				c-12.474,13.472-23.939,13.343-37.45,15.438C398.855,486.673,390.804,491.901,386.127,497.882z"/>
			<path style="fill:#0778A5;" d="M381.064,512.548c0,0,3.328-15.588,24.912-20.143c21.584-4.555,21.92,1.278,38.778-8.599
				c-12.474,13.472-23.939,13.343-37.451,15.438C393.791,501.339,385.741,506.567,381.064,512.548z"/>
			<path style="fill:#0778A5;" d="M381.064,512.548c0,0,2.676-12.555,24.26-17.11c21.584-4.555,22.572-1.755,39.43-11.632
				c-12.474,13.472-23.939,13.343-37.451,15.438C393.791,501.339,385.741,506.567,381.064,512.548z"/>
			<path style="fill:#0778A5;" d="M376,527.215c0,0,3.328-15.588,24.912-20.143c21.584-4.555,21.92,1.278,38.778-8.599
				c-12.474,13.472-23.938,13.343-37.45,15.438C388.728,516.006,380.677,521.234,376,527.215z"/>
			<path style="fill:#0778A5;" d="M376,527.215c0,0,2.676-12.555,24.26-17.11c21.585-4.555,22.572-1.755,39.43-11.632
				c-12.474,13.472-23.938,13.343-37.45,15.438C388.728,516.006,380.677,521.234,376,527.215z"/>
			<path style="fill:#0778A5;" d="M381.642,519.963c0.011-3.409,0.409-6.658,0.92-9.935c0.532-3.261,1.206-6.495,2.043-9.684
				c1.654-6.384,3.861-12.608,6.448-18.656c2.595-6.047,5.605-11.907,8.934-17.572c0.855-1.403,1.655-2.839,2.555-4.214l2.67-4.141
				c1.874-2.697,3.703-5.425,5.709-8.026c7.825-10.552,16.812-20.187,26.392-29.131l1.792-1.683l1.845-1.625l3.689-3.25
				c2.479-2.143,5.045-4.184,7.562-6.281c2.58-2.019,5.181-4.013,7.791-5.992c2.664-1.907,5.363-3.765,8.076-5.596
				c-2.578,2.022-5.172,4.017-7.8,5.963l-7.694,6.087c-2.493,2.116-5.034,4.175-7.487,6.335l-3.649,3.275l-1.824,1.637l-1.771,1.694
				c-9.468,9.003-18.329,18.679-26.011,29.24c-1.97,2.603-3.763,5.331-5.6,8.026l-2.614,4.136c-0.88,1.373-1.662,2.806-2.497,4.205
				c-3.252,5.651-6.182,11.486-8.695,17.494c-2.506,6.008-4.63,12.18-6.202,18.486c-0.797,3.15-1.43,6.339-1.923,9.542
				c-0.473,3.189-0.829,6.466-0.81,9.607L381.642,519.963z"/>
		</g>
		<g style="clip-path:url(#SVGID_00000127037592228946068450000015655017738542131880_);">
			<path style="fill:#0778A5;" d="M116.678,512.076c0,0-3.833-20.29,0.562-32.365c4.395-12.075,9.144-40.915,7.174-54.932
				c6.085,20.716,8.007,33.902,4.536,47.144C125.479,485.164,116.233,503.687,116.678,512.076z"/>
			<path style="fill:#0778A5;" d="M116.678,512.076c0,0-3.833-20.29,0.562-32.365c4.395-12.075,9.144-40.915,7.174-54.932
				c6.085,20.716,3.005,33.788-0.466,47.029C120.476,485.049,116.233,503.687,116.678,512.076z"/>
			<path style="fill:#0778A5;" d="M115.12,540.772c0,0-1.418-20.601,4.368-32.074c5.786-11.473,13.898-39.554,13.592-53.706
				c3.604,21.289,3.96,34.609-1.046,47.35C127.028,515.083,115.666,532.388,115.12,540.772z"/>
			<path style="fill:#0778A5;" d="M115.12,540.772c0,0-1.418-20.601,4.368-32.074c5.786-11.473,13.898-39.554,13.592-53.706
				c3.604,21.289-0.995,33.906-6,46.647C122.074,514.38,115.666,532.388,115.12,540.772z"/>
			<path style="fill:#0778A5;" d="M119.34,567.647c0,0-1.418-20.601,4.368-32.074c5.786-11.473,13.898-39.554,13.592-53.706
				c3.604,21.289,3.96,34.609-1.046,47.35C131.248,541.958,119.886,559.263,119.34,567.647z"/>
			<path style="fill:#0778A5;" d="M119.34,567.647c0,0-1.418-20.601,4.368-32.074c5.786-11.473,13.898-39.554,13.592-53.706
				c3.604,21.289-0.994,33.906-6,46.647C126.294,541.255,119.886,559.263,119.34,567.647z"/>
			<path style="fill:#0778A5;" d="M112.631,492.911c0,0-4.103-13.123-3.274-28.717c0.829-15.594,6.357-25.486,7.373-34.538
				c1.016-9.052-0.809-20.573-0.809-20.573s6.744,15.475,4.774,35.76C118.726,465.128,111.817,483.323,112.631,492.911z"/>
			<path style="fill:#0778A5;" d="M112.631,492.911c0,0-4.103-13.123-3.274-28.717c0.829-15.594,6.357-25.486,7.373-34.538
				c1.016-9.052-0.809-20.573-0.809-20.573s6.176,16.634,1.539,36.479C111.35,471.714,111.817,483.323,112.631,492.911z"/>
			<path style="fill:#0778A5;" d="M104.417,474.61c0,0-7.188-9.839-8.296-27.461c-1.109-17.622,6.037-49.792,3.174-58.169
				c5.656,10.014,8.729,30.841,6.696,48.945C103.959,456.029,104.417,474.61,104.417,474.61z"/>
			<path style="fill:#0778A5;" d="M104.417,474.61c0,0-7.188-9.839-8.296-27.461c-1.109-17.622,6.037-49.792,3.174-58.169
				c5.656,10.014,2.952,30.851,0.92,48.955C98.183,456.039,104.417,474.61,104.417,474.61z"/>
			<path style="fill:#0778A5;" d="M93.971,456.609c0,0-9.97-16.829-10.187-33.84c-0.217-17.01-2.739-38.319-4.976-43.649
				c6.873,8.851,15.82,30.172,14.564,42.836C92.117,434.619,90.475,448.397,93.971,456.609z"/>
			<path style="fill:#0778A5;" d="M93.971,456.609c0,0-9.97-16.829-10.187-33.84c-0.217-17.01-2.739-38.319-4.976-43.649
				c6.873,8.851,9.818,30.435,8.562,43.098C86.114,434.881,90.475,448.397,93.971,456.609z"/>
			<path style="fill:#0778A5;" d="M84.579,441.994c0,0-12.54-12.975-14.776-27.417c-2.236-14.441-12.251-43.088-15.773-46.224
				c11.077,12.654,21.563,29.517,23.058,39.773C78.583,418.382,78.757,434.498,84.579,441.994z"/>
			<path style="fill:#0778A5;" d="M84.579,441.994c0,0-12.54-12.975-14.776-27.417c-2.236-14.441-12.251-43.088-15.773-46.224
				c11.077,12.654,16.838,30.084,18.333,40.34C73.858,418.949,78.757,434.498,84.579,441.994z"/>
			<path style="fill:#0778A5;" d="M70.196,426.599c0,0-20.695-22.309-24.11-37.977c-3.415-15.668-7.215-30.222-9.527-31.309
				c7.754,9.635,16.294,26.162,21.559,40.502C63.383,412.156,70.196,426.599,70.196,426.599z"/>
			<path style="fill:#0778A5;" d="M70.196,426.599c0,0-20.695-22.309-24.11-37.977c-3.415-15.668-7.215-30.222-9.527-31.309
				c7.754,9.635,9.74,24.853,15.005,39.194C56.829,410.847,70.196,426.599,70.196,426.599z"/>
			<path style="fill:#0778A5;" d="M52.64,410.06c0,0-15.906-37.19-44.771-51.959c13.356,13.185,19.576,21.475,23.645,28.861
				C35.583,394.349,45.274,404.548,52.64,410.06z"/>
			<path style="fill:#0778A5;" d="M52.64,410.06c0,0-23.363-35.295-44.771-51.959c13.356,13.185,19.576,21.475,23.645,28.861
				C35.583,394.349,45.274,404.548,52.64,410.06z"/>
			<path style="fill:#0778A5;" d="M44.554,403.737c0,0-30.223-35.395-65.844-33.755C-4.647,376.338,33.791,395.709,44.554,403.737z"
				/>
			<path style="fill:#0778A5;" d="M44.554,403.737c0,0-33.712-28.377-65.844-33.755C-4.647,376.338,33.791,395.709,44.554,403.737z"
				/>
			<path style="fill:#0778A5;" d="M56.354,413.67c0,0-11.87-12.672-26.374-11.701c-14.504,0.971-26.985,5.807-36.483,0.063
				c15.226,9.993,28.199,9.197,38.397,8.562C42.092,409.959,51.022,411.677,56.354,413.67z"/>
			<path style="fill:#0778A5;" d="M56.354,413.67c0,0-12.473-8.479-26.977-7.509c-14.504,0.971-26.382,1.614-35.88-4.13
				c15.226,9.993,28.199,9.197,38.397,8.562C42.092,409.959,51.022,411.677,56.354,413.67z"/>
			<path style="fill:#0778A5;" d="M66.566,422.999c0,0-7.41-9.88-28.206-8.844c-20.796,1.036-26.723,2.387-37.625-3.286
				c12.227,9.129,22.531,11.057,35.714,10.206C49.633,420.224,58.38,420.648,66.566,422.999z"/>
			<path style="fill:#0778A5;" d="M66.566,422.999c0,0-8.226-6.525-29.022-5.489c-20.795,1.036-25.907-0.968-36.809-6.641
				c12.227,9.129,22.531,11.057,35.714,10.206C49.633,420.224,58.38,420.648,66.566,422.999z"/>
			<path style="fill:#0778A5;" d="M80.325,438.43c0,0-5.886-12.213-23.974-12.444c-18.088-0.231-31.129,1.597-37.653-1.6
				c8.326,6.219,19.419,7.716,33.777,7.91C66.833,432.49,76.527,435.486,80.325,438.43z"/>
			<path style="fill:#0778A5;" d="M80.325,438.43c0,0-6.15-9.825-24.238-10.056c-18.088-0.231-30.865-0.791-37.389-3.988
				c8.326,6.219,19.419,7.716,33.777,7.91C66.833,432.49,76.527,435.486,80.325,438.43z"/>
			<path style="fill:#0778A5;" d="M92.211,453.319c0,0-8.848-7.571-23.972-7.678c-15.123-0.107-28.188-3.116-38.292-11.181
				c5.733,2.108,12.117,3.713,24.374,3.834C66.578,438.415,83.815,439.342,92.211,453.319z"/>
			<path style="fill:#0778A5;" d="M92.211,453.319c0,0-8.848-7.571-23.972-7.678c-15.123-0.107-28.188-3.116-38.292-11.181
				c5.733,2.108,12.403,6.967,24.66,7.087C66.864,441.668,83.815,439.342,92.211,453.319z"/>
			<path style="fill:#0778A5;" d="M104.902,474.848c0,0-6.45-10.337-23.506-12.023c-17.057-1.686-29.63-0.656-40.267-14.214
				c9.654,5.478,20.549,5.787,31.179,5.941C82.938,454.706,99.905,459.898,104.902,474.848z"/>
			<path style="fill:#0778A5;" d="M104.902,474.848c0,0-6.45-10.337-23.506-12.023c-17.057-1.686-29.63-0.656-40.267-14.214
				c9.654,5.478,20.347,8.952,30.977,9.105C82.736,457.871,99.905,459.898,104.902,474.848z"/>
			<path style="fill:#0778A5;" d="M110.349,486.974c0,0-5.874-13.759-22.782-18.976c-16.908-5.217-31.72-1.434-41.369-8.293
				c7.63,9.16,21.989,11.41,32.689,12.587C89.587,473.469,107.207,480.443,110.349,486.974z"/>
			<path style="fill:#0778A5;" d="M110.349,486.974c0,0-5.395-11.655-22.304-16.872c-16.908-5.217-32.541-1.143-41.847-10.397
				c7.63,9.16,21.989,11.41,32.689,12.587C89.587,473.469,107.207,480.443,110.349,486.974z"/>
			<path style="fill:#0778A5;" d="M113.873,497.882c0,0-3.328-15.588-24.912-20.143c-21.584-4.554-21.92,1.278-38.778-8.599
				c12.474,13.472,23.938,13.343,37.45,15.438C101.145,486.673,109.196,491.901,113.873,497.882z"/>
			<path style="fill:#0778A5;" d="M113.873,497.882c0,0-2.676-12.555-24.26-17.11c-21.584-4.555-22.572-1.755-39.43-11.632
				c12.474,13.472,23.938,13.343,37.45,15.438C101.145,486.673,109.196,491.901,113.873,497.882z"/>
			<path style="fill:#0778A5;" d="M118.936,512.548c0,0-3.328-15.588-24.912-20.143c-21.584-4.555-21.92,1.278-38.778-8.599
				c12.474,13.472,23.939,13.343,37.45,15.438C106.209,501.339,114.259,506.567,118.936,512.548z"/>
			<path style="fill:#0778A5;" d="M118.936,512.548c0,0-2.676-12.555-24.26-17.11c-21.584-4.555-22.572-1.755-39.43-11.632
				c12.474,13.472,23.939,13.343,37.45,15.438C106.209,501.339,114.259,506.567,118.936,512.548z"/>
			<path style="fill:#0778A5;" d="M123.999,527.215c0,0-3.328-15.588-24.912-20.143c-21.584-4.555-21.92,1.278-38.778-8.599
				c12.474,13.472,23.938,13.343,37.45,15.438C111.272,516.006,119.323,521.234,123.999,527.215z"/>
			<path style="fill:#0778A5;" d="M123.999,527.215c0,0-2.676-12.555-24.26-17.11c-21.584-4.555-22.572-1.755-39.43-11.632
				c12.474,13.472,23.938,13.343,37.45,15.438C111.272,516.006,119.323,521.234,123.999,527.215z"/>
			<path style="fill:#0778A5;" d="M118.358,519.963c-0.011-3.409-0.409-6.658-0.92-9.935c-0.532-3.261-1.206-6.495-2.043-9.684
				c-1.654-6.384-3.861-12.608-6.448-18.656c-2.595-6.047-5.605-11.907-8.934-17.572c-0.855-1.403-1.655-2.839-2.555-4.214
				l-2.67-4.141c-1.874-2.697-3.703-5.425-5.709-8.026c-7.825-10.552-16.812-20.187-26.392-29.131l-1.792-1.683l-1.845-1.625
				l-3.689-3.25c-2.479-2.143-5.045-4.184-7.562-6.281c-2.58-2.019-5.181-4.013-7.791-5.992c-2.664-1.907-5.363-3.765-8.076-5.596
				c2.578,2.022,5.172,4.017,7.8,5.963l7.694,6.087c2.493,2.116,5.034,4.175,7.487,6.335l3.649,3.275l1.824,1.637l1.771,1.694
				c9.468,9.003,18.329,18.679,26.011,29.24c1.97,2.603,3.763,5.331,5.6,8.026l2.614,4.136c0.88,1.373,1.662,2.806,2.497,4.205
				c3.252,5.651,6.182,11.486,8.695,17.494c2.506,6.008,4.63,12.18,6.202,18.486c0.797,3.15,1.429,6.339,1.923,9.542
				c0.473,3.189,0.829,6.466,0.81,9.607L118.358,519.963z"/>
		</g>
	</g>
</g>
</svg>
