<?xml version="1.0" encoding="utf-8"?>
<svg id="master-artboard" viewBox="0 0 463.2106628417969 172.05270385742188" version="1.1" xmlns="http://www.w3.org/2000/svg" x="0px" y="0px" style="enable-background:new 0 0 336 235.2;" width="463.2106628417969px" height="172.05270385742188px"><rect id="ee-background" x="0" y="0" width="463.2106628417969" height="172.05270385742188" style="fill: white; fill-opacity: 0; pointer-events: none;"/><defs><style id="ee-google-fonts">@import url(https://fonts.googleapis.com/css?family=Boogaloo:400);</style></defs><path d="M 464.24945068359375 273.2000427246094 C 463.54278564453125 273.2000427246094 462.9261169433594 274.06671142578125 462.3994445800781 275.8000183105469 C 461.872802734375 277.5400390625 461.6094665527344 279.08001708984375 461.6094665527344 280.4200439453125 C 461.6094665527344 283.2400207519531 462.3428039550781 284.6500244140625 463.8094482421875 284.6500244140625 C 464.2294616699219 284.6500244140625 464.59613037109375 284.47003173828125 464.9094543457031 284.1100158691406 C 465.21612548828125 283.7500305175781 465.439453125 283.376708984375 465.5794677734375 282.9900207519531 C 465.7127990722656 282.6100158691406 465.8761291503906 282.0833740234375 466.0694580078125 281.4100341796875 L 469.11944580078125 281.6500244140625 C 468.699462890625 283.61669921875 468.0794677734375 285.1200256347656 467.25946044921875 286.1600341796875 C 466.43280029296875 287.2000427246094 465.2828063964844 287.72003173828125 463.8094482421875 287.72003173828125 C 462.0827941894531 287.72003173828125 460.7528076171875 287.06671142578125 459.8194580078125 285.7600402832031 C 458.87945556640625 284.46002197265625 458.4094543457031 282.8000183105469 458.4094543457031 280.780029296875 C 458.4094543457031 278.433349609375 458.8761291503906 276.1466979980469 459.8094482421875 273.9200439453125 C 460.2561340332031 272.8133544921875 460.8827819824219 271.9067077636719 461.689453125 271.2000427246094 C 462.4961242675781 270.4866943359375 463.4194641113281 270.1300354003906 464.45947265625 270.1300354003906 C 465.7394714355469 270.1300354003906 466.6694641113281 270.5533752441406 467.24945068359375 271.4000244140625 C 467.5361328125 271.8133544921875 467.76947021484375 272.2366943359375 467.949462890625 272.6700439453125 C 468.1361389160156 273.1033630371094 468.26947021484375 273.6567077636719 468.3494567871094 274.33001708984375 C 468.4961242675781 275.4033508300781 468.5827941894531 276.5533752441406 468.6094665527344 277.780029296875 L 465.51947021484375 277.5000305175781 C 465.51947021484375 275.433349609375 465.32611083984375 274.1366882324219 464.939453125 273.6100158691406 C 464.76611328125 273.3367004394531 464.5361328125 273.2000427246094 464.24945068359375 273.2000427246094 ZM 474.8189392089844 269.6700439453125 C 474.57891845703125 273.7167053222656 474.45892333984375 277.36669921875 474.45892333984375 280.6200256347656 C 474.45892333984375 283.86669921875 474.4989318847656 286.1466979980469 474.57891845703125 287.46002197265625 L 471.7489318847656 287.1900329589844 C 471.6889343261719 285.530029296875 471.658935546875 283.16668701171875 471.658935546875 280.10003662109375 C 471.658935546875 277.0333557128906 471.7789306640625 273.4866943359375 472.0189208984375 269.46002197265625 L 474.8189392089844 269.6700439453125 ZM 478.204345703125 275.5500183105469 L 480.9343566894531 275.8200378417969 L 480.9343566894531 287.34002685546875 L 478.204345703125 287.0700378417969 L 478.204345703125 275.5500183105469 M 478.39434814453125 271.33001708984375 L 481.0843505859375 271.6400451660156 L 480.8443298339844 274.33001708984375 L 478.1543273925781 273.9900207519531 L 478.39434814453125 271.33001708984375 ZM 489.1416015625 275.58001708984375 C 491.2549133300781 275.58001708984375 492.31158447265625 277.34002685546875 492.31158447265625 280.8600158691406 C 492.31158447265625 282.71337890625 492.2049255371094 284.6800231933594 491.9915771484375 286.7600402832031 L 489.19158935546875 286.5000305175781 C 489.36492919921875 284.6733703613281 489.45159912109375 282.8266906738281 489.45159912109375 280.96002197265625 C 489.45159912109375 279.10003662109375 489.1882629394531 278.1700439453125 488.6615905761719 278.1700439453125 C 488.4015808105469 278.1700439453125 488.07159423828125 278.8133544921875 487.6716003417969 280.10003662109375 C 487.2715759277344 281.3866882324219 487.0249328613281 282.6466979980469 486.93157958984375 283.8800354003906 C 486.9649353027344 284.5333557128906 487.02825927734375 285.7167053222656 487.12158203125 287.4300231933594 L 484.31158447265625 287.1700439453125 C 484.13824462890625 284.9100341796875 484.05157470703125 282.92669677734375 484.05157470703125 281.22003173828125 C 484.05157470703125 279.5066833496094 484.0982666015625 277.97003173828125 484.19158935546875 276.6100158691406 L 485.9715881347656 276.8000183105469 C 486.0049133300781 276.92669677734375 486.1249084472656 277.4466857910156 486.3315734863281 278.3600158691406 C 487.25823974609375 276.5066833496094 488.1949157714844 275.58001708984375 489.1416015625 275.58001708984375 ZM 495.57025146484375 275.5500183105469 L 498.3002624511719 275.8200378417969 L 498.3002624511719 287.34002685546875 L 495.57025146484375 287.0700378417969 L 495.57025146484375 275.5500183105469 M 495.76025390625 271.33001708984375 L 498.45025634765625 271.6400451660156 L 498.2102355957031 274.33001708984375 L 495.5202331542969 273.9900207519531 L 495.76025390625 271.33001708984375 ZM 505.9056396484375 280.8600158691406 C 505.93896484375 280.63336181640625 505.95562744140625 280.3433532714844 505.95562744140625 279.9900207519531 C 505.95562744140625 279.6366882324219 505.8822937011719 279.2767028808594 505.7356262207031 278.9100341796875 C 505.5889587402344 278.5433654785156 505.4056396484375 278.3600158691406 505.1856384277344 278.3600158691406 C 504.73895263671875 278.3600158691406 504.4156188964844 278.876708984375 504.21563720703125 279.9100341796875 C 504.015625 280.943359375 503.9156188964844 281.8900451660156 503.9156188964844 282.7500305175781 C 503.9156188964844 284.21002197265625 504.2089538574219 284.9400329589844 504.7956237792969 284.9400329589844 C 505.275634765625 284.9400329589844 505.95562744140625 284.10003662109375 506.83563232421875 282.4200439453125 L 508.6156311035156 283.6900329589844 C 508.18231201171875 284.856689453125 507.6423034667969 285.7833557128906 506.9956359863281 286.47003173828125 C 506.3489685058594 287.1567077636719 505.5689697265625 287.5000305175781 504.6556396484375 287.5000305175781 C 503.7423095703125 287.5000305175781 502.92230224609375 287.1400451660156 502.19561767578125 286.4200439453125 C 501.4689636230469 285.7000427246094 501.1056213378906 284.606689453125 501.1056213378906 283.1400451660156 C 501.1056213378906 281.56671142578125 501.3623046875 280.0066833496094 501.8756408691406 278.46002197265625 C 502.16229248046875 277.606689453125 502.5889587402344 276.9100341796875 503.1556396484375 276.3700256347656 C 503.7222900390625 275.8233642578125 504.44561767578125 275.5500183105469 505.32562255859375 275.5500183105469 C 506.20562744140625 275.5500183105469 506.93896484375 276.0000305175781 507.525634765625 276.9000244140625 C 508.1056213378906 277.7933654785156 508.3956298828125 278.7833557128906 508.3956298828125 279.8700256347656 C 508.3956298828125 280.3367004394531 508.32562255859375 280.7366943359375 508.1856384277344 281.0700378417969 L 505.9056396484375 280.8600158691406 Z" transform="matrix(9.010348320007324, 0, 0, 9.010348320007324, -4122.02587890625, -2627.359130859375)" style="fill: rgb(34, 148, 40); white-space: pre; color: rgb(34, 148, 40); fill-opacity: 1;"/></svg>